<svg width="151" height="230" viewBox="0 0 151 230" fill="none" xmlns="http://www.w3.org/2000/svg">
<path d="M74.9693 0.244623C70.8582 1.14064 68.8554 2.03665 65.1132 4.72469C59.7898 8.62498 58.1032 8.7831 55.4152 5.88424C54.4137 4.8301 53.5704 4.0395 53.4123 4.19762C51.7784 6.04236 51.5676 10.5751 53.0434 12.7888L54.0448 14.3173L52.6744 16.4256C51.304 18.4811 51.2513 18.8501 51.4095 24.5424C51.4622 27.9156 51.8311 31.447 52.2528 32.6592C52.8325 34.2404 52.8852 35.2418 52.4636 36.3487C52.0946 37.4028 52.1474 38.4042 52.6217 39.8273C53.0961 41.145 53.3596 44.9399 53.4123 50.5268C53.465 60.0667 54.2029 64.1778 58.1032 76.6166C60.1588 83.3103 61.7927 85.524 64.9551 86.1565C66.6944 86.4727 66.7998 86.6308 66.7998 88.581C66.7998 90.3203 66.3782 91.1636 64.3226 93.5354C61.371 96.9086 59.3155 98.0682 47.5619 102.864C25.8467 111.719 19.4165 115.936 16.7812 122.946C15.1473 127.32 13.1444 137.071 9.82391 156.731C8.1373 166.85 5.55467 180.976 4.07888 188.038C1.70708 199.581 0.231298 210.755 1.0746 210.755C1.65438 210.755 3.97347 202.058 6.92504 189.145C10.0874 175.073 11.7741 165.902 13.8296 151.829C15.9379 137.282 18.5205 125.37 20.4179 121.628C22.737 117.201 28.7456 113.511 45.9807 106.185C60.6858 99.9129 56.0476 103.444 37.7584 112.404C29.6943 116.41 23.106 120.363 23.6858 120.89C23.7912 120.996 26.3211 119.836 29.3781 118.36C32.4351 116.832 37.4949 114.407 40.71 112.984C43.8724 111.561 48.1944 109.242 50.2499 107.924L53.9921 105.5L52.4636 108.293C50.408 112.088 46.7713 120.469 46.7713 121.47C46.7713 121.892 47.6146 122.629 48.616 123.104C49.6174 123.578 50.3026 124.158 50.1972 124.369C50.0391 124.58 48.6687 125.054 47.1929 125.37C45.6644 125.739 43.5035 126.372 42.4493 126.793C39.7086 127.9 39.1815 129.798 39.2342 138.283C39.2342 146.031 40.8154 154.728 44.663 168.853C49.9864 188.091 57.0491 208.014 57.6816 205.379C58.1032 203.64 56.7855 198.474 54.2029 192.15C49.4593 180.343 44.1886 161.685 42.2912 150.142C41.3425 143.976 41.2371 131.959 42.1858 130.114C42.7129 129.112 43.8197 128.48 47.0348 127.426C50.1972 126.424 51.304 125.845 51.4622 125.054C51.5676 124.527 51.8838 123.894 52.1474 123.736C52.4636 123.525 51.5676 122.998 50.2499 122.471C48.9322 121.944 47.8254 121.47 47.8254 121.417C47.8254 120.89 51.0932 113.564 52.9907 109.874C55.0989 105.763 60.4223 99.0169 61.5291 99.0169C62.1616 99.0169 61.5818 103.339 59.8952 111.561C59.0519 115.672 58.3667 120.205 58.3667 121.575C58.3667 122.946 58.1559 124.79 57.8924 125.686C57.6288 126.582 56.891 131.063 56.2058 135.701C55.5733 140.286 54.7827 144.239 54.5192 144.397C54.2556 144.608 53.9921 149.51 53.9921 155.993C53.9921 166.06 54.1502 168.063 55.3625 174.44C56.7328 181.397 60.0006 193.256 61.0548 194.943C61.74 196.05 61.2129 191.886 59.579 184.138C56.9437 171.12 56.6801 169.275 56.4166 158.101C56.2058 149.721 56.2585 146.927 56.7328 147.191C57.0491 147.402 57.3126 148.192 57.3126 148.983C57.3126 153.516 64.6915 174.914 66.6417 176.127C67.2742 176.548 73.599 167.641 78.3953 159.735C80.7144 155.887 81.8212 154.464 82.1374 154.991C82.5064 155.571 82.6118 155.518 82.6118 154.939C82.6118 154.517 85.8796 147.665 89.8853 139.654C97.1588 125.159 100.954 116.621 103.115 110.085C104.432 106.027 105.803 99.175 105.803 96.5397V94.7476L108.333 96.7505C111.6 99.3858 111.6 99.3331 111.6 103.023C111.6 106.449 110.177 121.839 109.703 123.367C109.545 123.894 108.438 124.474 106.804 124.843C104.432 125.423 102.113 127.004 102.113 128.058C102.113 128.269 103.589 129.692 105.434 131.168C107.226 132.696 108.912 134.225 109.123 134.647C109.598 135.49 109.176 136.228 102.377 145.399C99.5306 149.299 93.4694 157.732 88.9366 164.11C84.4038 170.487 78.8169 178.34 76.4978 181.608C74.2314 184.823 69.9622 191.254 67.0633 195.839C64.1645 200.372 61.0021 205.01 60.0534 206.064L58.3667 208.014L61.6346 206.802C72.2286 202.954 73.8098 201.426 76.6032 192.466C77.6574 189.04 79.2913 184.56 80.1873 182.557C81.8212 179.078 89.411 166.376 91.3084 164.11C92.1517 163.055 92.1517 163.108 91.8882 164.426L91.5719 165.796L98.0549 164.848C104.854 163.793 108.016 163.161 112.549 161.896C115.079 161.211 115.29 161 115.29 159.577C115.29 158.575 115.026 158.048 114.499 158.048C114.078 158.048 113.709 157.627 113.709 157.1C113.709 156.573 112.971 154.991 112.128 153.621C110.863 151.671 110.283 151.196 109.598 151.513C102.851 154.412 97.3697 156.045 97.3697 155.149C97.3697 154.991 100.11 151.144 103.484 146.611C110.019 137.862 111.6 135.49 111.6 134.541C111.6 134.225 110.072 132.749 108.175 131.273C106.277 129.745 104.749 128.322 104.749 128.058C104.749 127.847 106.224 127.11 108.016 126.372L111.337 125.107L112.233 116.41C112.707 111.614 113.129 106.343 113.129 104.656L113.182 101.6L123.512 106.87C133.685 112.141 136.531 113.827 140.062 116.832L141.854 118.36L139.535 120.996C135.002 126.055 130.469 135.016 125.831 148.034C122.827 156.414 121.193 164.637 120.244 175.81C119.085 190.358 117.556 199.792 113.92 214.813C112.128 222.192 111.653 227.252 112.655 227.885C113.445 228.359 116.186 222.35 116.871 218.608C117.187 216.764 118.241 211.177 119.243 206.275C120.244 201.321 121.509 193.151 122.142 188.091C125.41 160.262 131.365 137.545 138.165 127.373C140.747 123.473 143.066 120.996 143.699 121.417C145.175 122.313 146.756 132.907 147.441 146.927C148.073 159.155 148.39 206.486 147.863 214.444C147.652 217.976 147.705 218.925 147.968 217.08C148.179 215.499 148.653 206.96 148.969 198.105C149.286 189.251 149.813 177.655 150.076 172.279C151.341 148.877 150.024 128.48 146.809 121.048C144.806 116.305 139.166 112.088 126.095 105.5C112.76 98.7534 108.175 95.2747 105.223 89.477C104.432 87.7904 102.851 85.7348 101.797 84.8915L99.8469 83.2576L100.163 76.7747C100.321 73.1906 100.743 68.9214 101.059 67.2348C101.692 64.3886 101.797 64.2305 103.326 64.2305C106.435 64.2305 110.968 60.0667 113.182 55.165C114.289 52.7404 114.552 48.3131 113.761 46.1521C113.392 45.1507 113.656 43.6749 114.816 39.9854C117.082 33.0282 117.714 27.7048 116.924 23.2247C115.817 17.058 112.813 12.9469 107.647 10.6278C106.488 10.1008 104.485 8.57227 103.22 7.14919C100.216 3.93409 94.6816 1.14064 89.7272 0.45545C86.0904 -0.0189098 77.0249 -0.17703 74.9693 0.244623ZM79.4494 3.93409C79.7129 4.19762 78.448 4.35574 76.287 4.25033C72.1759 4.0395 69.3824 5.09364 64.4807 8.62498C62.7414 9.88994 61.371 10.4697 60.1061 10.4697C57.8924 10.4697 55.4152 9.25746 54.6246 7.78167C54.0975 6.72754 54.1502 6.72754 55.7314 7.88709C58.1559 9.73182 60.8967 9.52099 63.7428 7.41273C65.0078 6.46401 67.2215 5.09364 68.6445 4.35574C70.9109 3.1962 71.8069 3.03808 75.1275 3.2489C77.2357 3.35432 79.1859 3.67056 79.4494 3.93409ZM92.8896 5.67341C91.4665 7.04378 86.6702 8.88851 83.8768 9.09934L80.7671 9.36287L83.6659 8.88851C85.2471 8.57227 87.8825 7.67626 89.4637 6.83295C92.5207 5.25176 93.7329 4.88281 92.8896 5.67341ZM77.3411 6.51671C78.6061 7.25461 78.6061 7.30731 76.4978 6.99107C73.3354 6.51671 71.0163 7.51814 67.3269 10.786C63.8482 13.8429 63.532 14.0011 61.5291 12.8415C60.2642 12.1036 60.2642 12.1036 62.2143 12.4199C64.1118 12.6834 64.428 12.578 67.0106 9.99535C70.9109 6.14777 74.6004 4.93552 77.3411 6.51671ZM95.4722 11.313C92.4152 12.7361 87.5135 13.5267 84.4565 13.0523C82.7172 12.7888 82.9807 12.7361 86.0377 12.6307C88.2514 12.578 91.203 12.0509 93.4167 11.2603C98.1603 9.67911 98.8455 9.67911 95.4722 11.313ZM55.4679 16.3729C54.6773 17.0053 53.465 18.692 52.7798 20.1677C51.4095 23.1193 51.0405 22.645 52.3055 19.5353C53.3069 17.2162 55.0989 15.2133 56.1531 15.2133C56.6274 15.2133 56.3639 15.6877 55.4679 16.3729ZM77.2357 17.5851C84.1403 17.5851 84.9836 17.7959 88.1987 20.484C89.6218 21.6435 91.9409 23.0139 93.364 23.541L95.8939 24.437L95.6303 29.286C95.3668 33.9769 95.4195 34.1877 96.948 36.6122C99.5306 40.7233 99.6361 41.3031 98.8982 47.5225C98.4765 51.6863 98.4238 53.3729 98.8455 53.7946C99.7415 54.6906 101.006 53.3729 101.639 50.7376C102.271 48.2077 105.328 44.9926 107.647 44.4128C111.179 43.5168 112.971 45.8359 112.549 50.7903C112.128 56.061 106.383 62.6493 102.271 62.6493C100.954 62.6493 100.374 62.3858 100.11 61.5425C99.7415 60.5937 99.4779 60.91 98.213 63.7561C94.9979 71.0297 91.5719 74.561 81.5577 80.9385C76.8668 83.9428 75.8126 84.259 70.7001 84.259C65.1132 84.259 63.0049 83.4684 61.5818 80.7277C59.8425 77.3017 56.9437 67.9727 55.8368 62.1222C54.1502 53.531 54.0975 52.635 54.6773 48.5239C55.0989 45.3615 55.0462 44.0966 54.361 41.2504C53.8867 39.4057 53.6758 37.6663 53.8867 37.4555C54.0975 37.2447 56.1004 37.1393 58.4194 37.192C60.6858 37.2974 62.5833 37.192 62.5833 37.0339C62.5833 36.8757 62.2143 36.0324 61.74 35.1364C60.8967 33.5025 60.8967 33.5025 57.2599 33.7661C55.2043 33.9242 53.6231 33.8188 53.6231 33.5552C53.6231 31.974 55.5206 25.0695 56.5747 22.8558C57.9978 19.8515 60.3169 17.1635 61.2129 17.4797C61.5291 17.5851 63.163 18.0068 64.797 18.3757C67.7485 19.0609 67.8012 19.0082 69.5406 17.5851C70.8055 16.531 71.3326 16.3202 71.438 16.8472C71.5434 17.427 72.8084 17.5851 77.2357 17.5851ZM93.9964 21.5908C94.8397 21.9598 97.2115 22.3814 99.2144 22.5922L102.904 22.9612L99.2144 23.0139C94.8397 23.1193 91.203 21.6962 88.6731 18.8501L87.0919 17.1108L89.7799 19.0609C91.2557 20.115 93.1531 21.2746 93.9964 21.5908ZM98.2657 73.7177C97.8967 77.249 97.9494 80.7277 98.3711 85.4713C98.9509 91.9542 98.9509 92.2704 97.8967 93.7462C95.6831 96.9086 88.7785 102.021 82.8753 104.92C80.6089 106.027 79.6075 106.185 76.0235 106.08L71.8069 105.921L69.4878 103.392C67.2215 100.862 67.2215 100.862 67.5377 97.7519C67.6958 96.0653 67.8539 92.9556 67.8539 90.8474V87.0525L71.7542 86.7362C76.3397 86.42 77.8155 85.7348 86.8283 79.779C93.2585 75.5097 96.7899 72.3473 98.0021 69.712C98.3184 69.0268 98.6346 68.4997 98.6873 68.5524C98.74 68.6579 98.5292 70.9769 98.2657 73.7177ZM102.64 91.269C102.957 92.3759 103.273 95.2747 103.22 97.7519C103.22 103.497 102.482 105.025 96.2628 112.194C93.5748 115.198 90.9922 118.36 90.4651 119.256L89.5164 120.785L86.7229 116.357C85.1417 113.933 83.3497 111.034 82.7172 109.98L81.505 108.03L86.354 105.553C94.0491 101.6 101.059 94.0098 101.059 89.6878C101.059 87.8958 101.797 88.581 102.64 91.269ZM65.5348 95.4328C65.0605 96.0653 64.6915 97.383 64.6915 98.3844C64.6915 100.756 67.0633 105.236 68.8554 106.29L70.3312 107.081L68.4864 109.611C67.4323 110.981 65.8511 113.511 64.9551 115.251L63.2685 118.36L62.5833 113.195C62.0562 109.295 62.0035 107.292 62.4779 105.236C62.7941 103.708 63.2685 101.072 63.5847 99.4385C64.0591 96.6451 65.5876 93.43 66.1146 93.957C66.2727 94.1152 66.0092 94.7476 65.5348 95.4328ZM80.3981 109.347C81.7158 110.191 81.9266 112.035 80.8198 113.511C80.1873 114.407 79.8711 114.46 78.0263 113.88C76.8668 113.511 74.4423 113.248 72.6502 113.248C69.5933 113.248 69.4351 113.195 69.4351 111.983C69.4351 109.347 72.8611 107.819 77.3411 108.399C78.3426 108.504 79.7129 108.978 80.3981 109.347ZM100.532 111.139C97.317 119.362 87.25 140.128 83.2443 146.875L80.6617 151.302L80.3454 148.456C80.1346 146.927 79.9765 144.45 79.9765 143.027C79.9765 141.551 79.5021 137.387 78.8696 133.698L77.7628 127.004L80.1873 123.157C81.505 120.996 83.1389 118.729 83.8241 118.044L85.089 116.884L87.1446 120.1C89.1474 123.262 89.1474 123.262 90.2543 122.208C90.834 121.681 93.5748 118.36 96.3155 114.882C99.0563 111.35 101.375 108.504 101.428 108.504C101.533 108.504 101.112 109.664 100.532 111.139ZM77.8155 116.305C78.8169 116.779 79.6075 117.412 79.6075 117.728C79.6075 117.991 78.6588 119.836 77.552 121.839L75.4964 125.423L73.3881 125.054C72.2286 124.896 71.2272 124.685 71.1218 124.58C70.8055 124.316 69.646 115.883 69.8568 115.619C70.542 114.987 76.1816 115.409 77.8155 116.305ZM68.5918 121.101L69.5406 125.423L68.0121 128.427C65.2186 133.751 63.532 140.813 62.8468 149.879C62.6887 152.198 62.4252 155.518 62.2143 157.258L61.8981 160.42L60.6858 155.677C58.9992 149.194 58.1559 141.288 58.5249 135.912C58.8938 130.799 61.5818 119.783 62.4252 119.941C62.6887 119.994 63.7428 119.204 64.7442 118.202C65.693 117.201 66.7471 116.463 67.0633 116.568C67.3269 116.674 68.0121 118.729 68.5918 121.101ZM72.1232 133.118C72.1759 140.181 72.8084 142.184 73.3354 136.966C74.3896 126.055 74.6531 125.95 76.0235 135.753C76.6032 139.865 76.8668 144.134 76.7087 147.612C76.4451 153.99 75.7599 155.835 70.9109 163.214C67.2215 168.853 67.4323 168.906 65.9565 161.632C65.2713 158.259 65.1659 155.624 65.3767 149.668C65.693 141.498 66.6417 136.966 69.277 131.01C71.3326 126.424 72.0705 127.004 72.1232 133.118ZM111.126 156.045C112.496 157.732 112.391 158.365 110.704 158.786C105.75 159.84 93.8383 162.265 93.2585 162.265C92.5734 162.265 95.4722 157.574 96.2101 157.469C96.4209 157.469 99.2144 156.889 102.377 156.204C109.808 154.675 109.914 154.675 111.126 156.045Z" fill="#15304A"/>
<path d="M71.7542 32.5536C71.6488 32.6591 71.5434 33.3442 71.5434 33.9767C71.5434 35.4525 72.0705 35.6106 79.0277 35.9796C84.5092 36.2958 86.7756 36.981 89.8326 39.3001L91.73 40.7759L91.0449 39.4582C89.411 36.2958 87.3027 33.7659 85.8269 33.1861C84.4038 32.5536 72.2813 32.0266 71.7542 32.5536Z" fill="#15304A"/>
<path d="M67.485 41.0395C67.3796 43.6748 64.5334 52.6877 63.0049 55.1649C62.3197 56.2717 62.0035 57.484 62.1616 58.4854C62.3197 59.6449 62.2143 59.9612 61.74 59.8031C61.0021 59.4868 60.2115 60.3301 60.844 60.6991C61.1075 60.8045 62.0035 61.068 62.8468 61.2788C64.1645 61.5424 64.3226 61.4897 63.5847 60.9626C62.3724 59.9612 62.636 59.1706 65.9038 54.3216C67.5377 51.8971 69.0135 49.2617 69.1716 48.3657C69.5933 46.521 69.0662 42.4626 68.1702 40.3016L67.5377 38.7731L67.485 41.0395Z" fill="#15304A"/>
<path d="M58.1032 42.5151C55.8368 42.884 55.6787 43.0949 56.6274 44.2017C57.6816 45.414 60.5277 45.6248 62.9522 44.6761C64.3226 44.149 64.3753 44.0963 63.4266 43.5692C62.0562 42.7786 59.3682 42.2516 58.1032 42.5151Z" fill="#15304A"/>
<path d="M76.0762 42.568C75.8653 42.8316 76.2343 42.937 76.8141 42.7788C77.9736 42.4626 78.2371 43.3586 77.2357 43.9911C76.3397 44.5709 78.5007 45.1506 81.7158 45.2034C83.297 45.2561 84.1403 45.0452 83.9295 44.729C83.297 43.7276 84.193 43.1478 85.5107 43.6749C86.3013 43.9911 86.8283 43.9911 86.8283 43.6749C86.8283 42.4626 76.7614 41.4085 76.0762 42.568Z" fill="#15304A"/>
<path d="M107.489 46.0992C105.908 47.1534 106.014 48.1548 107.595 47.1007C109.229 45.9938 110.283 46.5209 111.284 48.84C112.022 50.632 112.075 50.6847 112.075 49.4198C112.128 47.944 110.336 45.2559 109.281 45.2559C108.965 45.2559 108.122 45.6249 107.489 46.0992Z" fill="#15304A"/>
<path d="M106.277 48.9454C105.223 49.5779 103.484 54.0052 103.905 55.0594C104.063 55.481 103.694 56.3243 103.062 56.9568C102.113 57.9055 102.061 58.1164 102.851 58.538C104.854 59.6449 107.753 55.85 106.804 53.2674C106.541 52.5822 106.33 51.6862 106.33 51.2645C106.33 50.105 108.28 50.3685 109.176 51.6862L110.019 52.8457V51.6862C110.019 50.5793 108.333 48.4183 107.542 48.4183C107.279 48.4183 106.751 48.6819 106.277 48.9454Z" fill="#15304A"/>
<path d="M71.438 57.431C71.7542 57.8 72.0705 58.8541 72.0705 59.6974C72.1232 60.9624 72.2286 61.1205 72.5975 60.488C73.23 59.3812 72.7029 57.5364 71.6488 57.1148C70.9109 56.8513 70.8582 56.904 71.438 57.431Z" fill="#15304A"/>
<path d="M65.2186 60.172C65.2186 60.6464 66.0092 60.8572 67.8539 60.8572C69.9095 60.8572 70.3312 60.7518 69.8568 60.172C69.5406 59.803 68.381 59.4868 67.2742 59.4868C65.9565 59.4868 65.2186 59.7503 65.2186 60.172Z" fill="#15304A"/>
<path d="M64.1645 66.1279C57.6816 66.7077 57.8924 67.6037 64.5861 67.8145C67.3796 67.8672 71.069 68.2362 72.7557 68.6578C76.4451 69.5011 76.6559 68.9741 73.1773 67.4983C70.3312 66.2333 67.6958 65.8644 64.1645 66.1279Z" fill="#15304A"/>
<path d="M63.1103 70.5554C63.1103 71.1879 69.8041 71.1879 71.2799 70.5554C71.9651 70.2392 70.8055 70.0811 67.7485 70.0811C64.9551 70.0284 63.1103 70.2392 63.1103 70.5554Z" fill="#15304A"/>
<path d="M22.7897 127.478C23.9493 137.862 23.2641 193.467 21.841 200.319C20.8923 204.904 20.4179 205.484 17.888 204.904C15.0946 204.272 10.9307 204.377 9.08601 205.168L7.50481 205.853L10.4037 206.222C13.3025 206.591 16.9393 208.33 18.3624 210.017C18.9422 210.755 18.7313 210.702 16.992 209.806C12.0376 207.276 7.08316 207.856 3.28828 211.335C0.178591 214.181 -0.348476 216.078 0.178591 221.718L0.600244 226.303L1.0219 223.404C2.07603 216.605 2.55039 215.13 3.97347 213.759C7.61023 210.28 13.408 210.544 17.4137 214.339C19.5219 216.289 20.1544 217.712 21.4194 223.036C22.5789 227.832 23.3168 229.729 24.0547 229.729C24.2655 229.729 25.0034 226.356 25.6359 222.192C26.7427 214.761 26.7954 214.392 26.2684 175.968C25.7413 135.753 25.4778 131.537 23.3168 126.793L22.5262 125.107L22.7897 127.478Z" fill="#15304A"/>
<path d="M99.5306 133.908C99.0036 134.804 99.0563 135.068 99.8469 135.7C105.012 139.601 105.803 139.917 105.803 138.283C105.803 137.967 104.538 136.596 103.009 135.279C100.321 132.96 100.163 132.907 99.5306 133.908Z" fill="#15304A"/>
<path d="M64.9551 181.45C64.0064 182.821 64.3753 184.244 65.7457 184.665C67.116 185.087 68.3283 184.454 68.6972 183.031C69.3824 180.396 66.4309 179.184 64.9551 181.45Z" fill="#15304A"/>
<path d="M147.019 222.35C147.019 223.088 147.125 223.352 147.283 222.983C147.388 222.667 147.388 222.034 147.283 221.665C147.125 221.349 147.019 221.612 147.019 222.35Z" fill="#15304A"/>
</svg>
