<svg width="600" height="63" viewBox="0 0 600 63" fill="none" xmlns="http://www.w3.org/2000/svg">
<g clip-path="url(#clip0_1_10)">
<path d="M59.8984 50V47.0469L63.7188 46.3906V19.5078L59.8984 18.8516V15.8984H75.1094C77.5938 15.8984 79.6875 16.2734 81.3906 17.0234C83.1094 17.7578 84.4141 18.8281 85.3047 20.2344C86.1953 21.6406 86.6406 23.3594 86.6406 25.3906C86.6406 27.3906 86.2031 29.0703 85.3281 30.4297C84.4688 31.7891 83.2422 32.8203 81.6484 33.5234C80.0547 34.2109 78.1641 34.5781 75.9766 34.625L68.3359 34.7656V46.3906L72.1562 47.0469V50H59.8984ZM82.4219 50L74.8281 32.9609L79.4453 32.9141L85.75 46.5547L88.1172 46.9766V50H82.4219ZM68.3359 31.1328H74.6406C77.2188 31.1328 79.0938 30.6406 80.2656 29.6562C81.4375 28.6719 82.0234 27.2344 82.0234 25.3438C82.0234 23.5469 81.4609 22.125 80.3359 21.0781C79.2109 20.0312 77.4688 19.5078 75.1094 19.5078H68.3359V31.1328ZM103.773 50.4922C101.43 50.4922 99.3906 49.9609 97.6562 48.8984C95.9219 47.8203 94.5781 46.3281 93.625 44.4219C92.6875 42.5156 92.2188 40.3125 92.2188 37.8125V36.7812C92.2188 34.375 92.7109 32.2266 93.6953 30.3359C94.6953 28.4297 96.0156 26.9297 97.6562 25.8359C99.3125 24.7266 101.117 24.1719 103.07 24.1719C105.352 24.1719 107.258 24.6406 108.789 25.5781C110.336 26.5156 111.5 27.8359 112.281 29.5391C113.062 31.2266 113.453 33.2188 113.453 35.5156V38.3984H97L96.9297 38.5156C96.9609 40.1406 97.2422 41.5859 97.7734 42.8516C98.3203 44.1016 99.1016 45.0859 100.117 45.8047C101.133 46.5234 102.352 46.8828 103.773 46.8828C105.336 46.8828 106.703 46.6641 107.875 46.2266C109.062 45.7734 110.086 45.1562 110.945 44.375L112.75 47.375C111.844 48.25 110.641 48.9922 109.141 49.6016C107.656 50.1953 105.867 50.4922 103.773 50.4922ZM97.1406 34.7891H108.836V34.1797C108.836 32.9609 108.617 31.875 108.18 30.9219C107.758 29.9531 107.117 29.1953 106.258 28.6484C105.414 28.0859 104.352 27.8047 103.07 27.8047C102.039 27.8047 101.102 28.1094 100.258 28.7188C99.4141 29.3125 98.7188 30.125 98.1719 31.1562C97.625 32.1875 97.2656 33.3594 97.0938 34.6719L97.1406 34.7891ZM125.641 50.4922C123 50.4922 120.992 49.8516 119.617 48.5703C118.242 47.2734 117.555 45.4531 117.555 43.1094C117.555 41.5 117.992 40.1016 118.867 38.9141C119.758 37.7109 121.039 36.7812 122.711 36.125C124.383 35.4531 126.383 35.1172 128.711 35.1172H133.234V32.6328C133.234 31.1016 132.766 29.9141 131.828 29.0703C130.906 28.2266 129.602 27.8047 127.914 27.8047C126.852 27.8047 125.93 27.9375 125.148 28.2031C124.367 28.4531 123.656 28.8047 123.016 29.2578L122.523 32.7969H118.961V26.9844C120.102 26.0625 121.43 25.3672 122.945 24.8984C124.461 24.4141 126.141 24.1719 127.984 24.1719C131.062 24.1719 133.477 24.9062 135.227 26.375C136.977 27.8438 137.852 29.9453 137.852 32.6797V44.8906C137.852 45.2188 137.852 45.5391 137.852 45.8516C137.867 46.1641 137.891 46.4766 137.922 46.7891L140.383 47.0469V50H133.75C133.609 49.3125 133.5 48.6953 133.422 48.1484C133.344 47.6016 133.289 47.0547 133.258 46.5078C132.367 47.6484 131.25 48.6016 129.906 49.3672C128.578 50.1172 127.156 50.4922 125.641 50.4922ZM126.32 46.625C127.852 46.625 129.25 46.2578 130.516 45.5234C131.781 44.7891 132.688 43.9062 133.234 42.875V38.2812H128.547C126.422 38.2812 124.828 38.7891 123.766 39.8047C122.703 40.8203 122.172 41.9531 122.172 43.2031C122.172 44.3125 122.516 45.1641 123.203 45.7578C123.891 46.3359 124.93 46.625 126.32 46.625ZM153.93 50.4922C151.867 50.4922 150.094 49.9844 148.609 48.9688C147.141 47.9375 146.016 46.5078 145.234 44.6797C144.453 42.8516 144.062 40.7188 144.062 38.2812V37.7891C144.062 35.0703 144.453 32.6875 145.234 30.6406C146.016 28.5938 147.148 27.0078 148.633 25.8828C150.117 24.7422 151.898 24.1719 153.977 24.1719C155.477 24.1719 156.797 24.4531 157.938 25.0156C159.094 25.5625 160.078 26.3594 160.891 27.4062V17.0703L157.07 16.4141V13.4375H160.891H165.508V46.3906L169.328 47.0469V50H161.5L161.125 46.9766C160.297 48.1328 159.281 49.0078 158.078 49.6016C156.891 50.1953 155.508 50.4922 153.93 50.4922ZM155.102 46.7422C156.477 46.7422 157.633 46.4297 158.57 45.8047C159.508 45.1797 160.281 44.2969 160.891 43.1562V31.3906C160.297 30.3281 159.523 29.4844 158.57 28.8594C157.617 28.2344 156.477 27.9219 155.148 27.9219C153.68 27.9219 152.469 28.3438 151.516 29.1875C150.562 30.0156 149.852 31.1719 149.383 32.6562C148.914 34.125 148.68 35.8359 148.68 37.7891V38.2812C148.68 40.8281 149.203 42.875 150.25 44.4219C151.297 45.9688 152.914 46.7422 155.102 46.7422ZM178.023 60.2422C177.664 60.2422 177.195 60.1953 176.617 60.1016C176.039 60.0234 175.594 59.9453 175.281 59.8672L175.75 56.2344C176.016 56.2656 176.383 56.2891 176.852 56.3047C177.32 56.3359 177.641 56.3516 177.812 56.3516C178.797 56.3516 179.594 55.9766 180.203 55.2266C180.828 54.4766 181.406 53.4531 181.938 52.1562L183.039 49.4844L174.062 27.9922L171.344 27.6172V24.6406H181.984V27.6172L178.914 28.0859L183.859 40.7656L185.055 44.0703H185.195L191.055 28.0859L187.82 27.6172V24.6406H198.25V27.6172L195.625 27.9922L185.641 53.8906C185.172 55.1094 184.602 56.1953 183.93 57.1484C183.273 58.1172 182.461 58.875 181.492 59.4219C180.539 59.9688 179.383 60.2422 178.023 60.2422ZM200.922 50V47.0469L204.742 46.3906V19.5078L200.922 18.8516V15.875H204.742H210.906L221.898 41.7734H222.039L232.68 15.875H242.969V18.8516L239.148 19.5078V46.3906L242.969 47.0469V50H230.711V47.0469L234.742 46.3906V36.5V22.1797L234.625 22.1562L223.539 48.7812H220.469L209.008 22.2031L208.891 22.2266L209.055 36.5V46.3906L213.18 47.0469V50H200.922ZM255.109 50.4922C252.469 50.4922 250.461 49.8516 249.086 48.5703C247.711 47.2734 247.023 45.4531 247.023 43.1094C247.023 41.5 247.461 40.1016 248.336 38.9141C249.227 37.7109 250.508 36.7812 252.18 36.125C253.852 35.4531 255.852 35.1172 258.18 35.1172H262.703V32.6328C262.703 31.1016 262.234 29.9141 261.297 29.0703C260.375 28.2266 259.07 27.8047 257.383 27.8047C256.32 27.8047 255.398 27.9375 254.617 28.2031C253.836 28.4531 253.125 28.8047 252.484 29.2578L251.992 32.7969H248.43V26.9844C249.57 26.0625 250.898 25.3672 252.414 24.8984C253.93 24.4141 255.609 24.1719 257.453 24.1719C260.531 24.1719 262.945 24.9062 264.695 26.375C266.445 27.8438 267.32 29.9453 267.32 32.6797V44.8906C267.32 45.2188 267.32 45.5391 267.32 45.8516C267.336 46.1641 267.359 46.4766 267.391 46.7891L269.852 47.0469V50H263.219C263.078 49.3125 262.969 48.6953 262.891 48.1484C262.812 47.6016 262.758 47.0547 262.727 46.5078C261.836 47.6484 260.719 48.6016 259.375 49.3672C258.047 50.1172 256.625 50.4922 255.109 50.4922ZM255.789 46.625C257.32 46.625 258.719 46.2578 259.984 45.5234C261.25 44.7891 262.156 43.9062 262.703 42.875V38.2812H258.016C255.891 38.2812 254.297 38.7891 253.234 39.8047C252.172 40.8203 251.641 41.9531 251.641 43.2031C251.641 44.3125 251.984 45.1641 252.672 45.7578C253.359 46.3359 254.398 46.625 255.789 46.625ZM283.398 50.4922C281.336 50.4922 279.562 49.9844 278.078 48.9688C276.609 47.9375 275.484 46.5078 274.703 44.6797C273.922 42.8516 273.531 40.7188 273.531 38.2812V37.7891C273.531 35.0703 273.922 32.6875 274.703 30.6406C275.484 28.5938 276.617 27.0078 278.102 25.8828C279.586 24.7422 281.367 24.1719 283.445 24.1719C284.945 24.1719 286.266 24.4531 287.406 25.0156C288.562 25.5625 289.547 26.3594 290.359 27.4062V17.0703L286.539 16.4141V13.4375H290.359H294.977V46.3906L298.797 47.0469V50H290.969L290.594 46.9766C289.766 48.1328 288.75 49.0078 287.547 49.6016C286.359 50.1953 284.977 50.4922 283.398 50.4922ZM284.57 46.7422C285.945 46.7422 287.102 46.4297 288.039 45.8047C288.977 45.1797 289.75 44.2969 290.359 43.1562V31.3906C289.766 30.3281 288.992 29.4844 288.039 28.8594C287.086 28.2344 285.945 27.9219 284.617 27.9219C283.148 27.9219 281.938 28.3438 280.984 29.1875C280.031 30.0156 279.32 31.1719 278.852 32.6562C278.383 34.125 278.148 35.8359 278.148 37.7891V38.2812C278.148 40.8281 278.672 42.875 279.719 44.4219C280.766 45.9688 282.383 46.7422 284.57 46.7422ZM313.398 50.4922C311.055 50.4922 309.016 49.9609 307.281 48.8984C305.547 47.8203 304.203 46.3281 303.25 44.4219C302.312 42.5156 301.844 40.3125 301.844 37.8125V36.7812C301.844 34.375 302.336 32.2266 303.32 30.3359C304.32 28.4297 305.641 26.9297 307.281 25.8359C308.938 24.7266 310.742 24.1719 312.695 24.1719C314.977 24.1719 316.883 24.6406 318.414 25.5781C319.961 26.5156 321.125 27.8359 321.906 29.5391C322.688 31.2266 323.078 33.2188 323.078 35.5156V38.3984H306.625L306.555 38.5156C306.586 40.1406 306.867 41.5859 307.398 42.8516C307.945 44.1016 308.727 45.0859 309.742 45.8047C310.758 46.5234 311.977 46.8828 313.398 46.8828C314.961 46.8828 316.328 46.6641 317.5 46.2266C318.688 45.7734 319.711 45.1562 320.57 44.375L322.375 47.375C321.469 48.25 320.266 48.9922 318.766 49.6016C317.281 50.1953 315.492 50.4922 313.398 50.4922ZM306.766 34.7891H318.461V34.1797C318.461 32.9609 318.242 31.875 317.805 30.9219C317.383 29.9531 316.742 29.1953 315.883 28.6484C315.039 28.0859 313.977 27.8047 312.695 27.8047C311.664 27.8047 310.727 28.1094 309.883 28.7188C309.039 29.3125 308.344 30.125 307.797 31.1562C307.25 32.1875 306.891 33.3594 306.719 34.6719L306.766 34.7891ZM339.156 50.4922C337.078 50.4922 335.078 50.1875 333.156 49.5781C331.234 48.9688 329.398 48.0312 327.648 46.7656V39.4766H331.234L332.008 44.8438C333.023 45.4688 334.125 45.9531 335.312 46.2969C336.5 46.6406 337.781 46.8125 339.156 46.8125C340.719 46.8125 342.039 46.5781 343.117 46.1094C344.211 45.625 345.047 44.9609 345.625 44.1172C346.203 43.2734 346.492 42.2891 346.492 41.1641C346.492 40.1172 346.242 39.1953 345.742 38.3984C345.242 37.6016 344.414 36.9062 343.258 36.3125C342.117 35.7031 340.555 35.1719 338.57 34.7188C336.227 34.1719 334.242 33.4453 332.617 32.5391C331.008 31.6172 329.781 30.5078 328.938 29.2109C328.109 27.8984 327.695 26.3984 327.695 24.7109C327.695 22.9297 328.164 21.3359 329.102 19.9297C330.055 18.5234 331.375 17.4141 333.062 16.6016C334.75 15.7891 336.719 15.3828 338.969 15.3828C341.359 15.3828 343.469 15.75 345.297 16.4844C347.141 17.2031 348.656 18.0781 349.844 19.1094V25.9297H346.258L345.484 21.0547C344.781 20.4922 343.906 20.0234 342.859 19.6484C341.812 19.2734 340.516 19.0859 338.969 19.0859C337.656 19.0859 336.5 19.3203 335.5 19.7891C334.5 20.2422 333.719 20.8828 333.156 21.7109C332.594 22.5391 332.312 23.5156 332.312 24.6406C332.312 25.625 332.562 26.4844 333.062 27.2188C333.578 27.9531 334.406 28.6016 335.547 29.1641C336.703 29.7109 338.242 30.2266 340.164 30.7109C343.758 31.6016 346.477 32.9219 348.32 34.6719C350.18 36.4062 351.109 38.5547 351.109 41.1172C351.109 42.9453 350.617 44.5703 349.633 45.9922C348.648 47.3984 347.258 48.5 345.461 49.2969C343.68 50.0938 341.578 50.4922 339.156 50.4922ZM354.25 59.75V56.7734L357.836 56.1172V28.2734L354.016 27.6172V24.6406H361.797L362.219 27.7344C363.062 26.5781 364.086 25.6953 365.289 25.0859C366.508 24.4766 367.914 24.1719 369.508 24.1719C371.602 24.1719 373.391 24.7422 374.875 25.8828C376.359 27.0078 377.492 28.5938 378.273 30.6406C379.055 32.6719 379.445 35.0547 379.445 37.7891V38.2812C379.445 40.7188 379.047 42.8516 378.25 44.6797C377.469 46.5078 376.344 47.9375 374.875 48.9688C373.406 49.9844 371.641 50.4922 369.578 50.4922C368.016 50.4922 366.641 50.2344 365.453 49.7188C364.281 49.1875 363.281 48.4062 362.453 47.375V56.1172L366.484 56.7734V59.75H354.25ZM368.148 46.8828C370.336 46.8828 371.992 46.0859 373.117 44.4922C374.242 42.8984 374.805 40.8281 374.805 38.2812V37.7891C374.805 35.8516 374.555 34.1484 374.055 32.6797C373.555 31.1953 372.805 30.0312 371.805 29.1875C370.82 28.3438 369.586 27.9219 368.102 27.9219C366.789 27.9219 365.664 28.2188 364.727 28.8125C363.789 29.4062 363.031 30.2188 362.453 31.25V43.6016C363.031 44.6484 363.781 45.4609 364.703 46.0391C365.641 46.6016 366.789 46.8828 368.148 46.8828ZM395.523 50.4922C393.18 50.4922 391.141 49.9609 389.406 48.8984C387.672 47.8203 386.328 46.3281 385.375 44.4219C384.438 42.5156 383.969 40.3125 383.969 37.8125V36.7812C383.969 34.375 384.461 32.2266 385.445 30.3359C386.445 28.4297 387.766 26.9297 389.406 25.8359C391.062 24.7266 392.867 24.1719 394.82 24.1719C397.102 24.1719 399.008 24.6406 400.539 25.5781C402.086 26.5156 403.25 27.8359 404.031 29.5391C404.812 31.2266 405.203 33.2188 405.203 35.5156V38.3984H388.75L388.68 38.5156C388.711 40.1406 388.992 41.5859 389.523 42.8516C390.07 44.1016 390.852 45.0859 391.867 45.8047C392.883 46.5234 394.102 46.8828 395.523 46.8828C397.086 46.8828 398.453 46.6641 399.625 46.2266C400.812 45.7734 401.836 45.1562 402.695 44.375L404.5 47.375C403.594 48.25 402.391 48.9922 400.891 49.6016C399.406 50.1953 397.617 50.4922 395.523 50.4922ZM388.891 34.7891H400.586V34.1797C400.586 32.9609 400.367 31.875 399.93 30.9219C399.508 29.9531 398.867 29.1953 398.008 28.6484C397.164 28.0859 396.102 27.8047 394.82 27.8047C393.789 27.8047 392.852 28.1094 392.008 28.7188C391.164 29.3125 390.469 30.125 389.922 31.1562C389.375 32.1875 389.016 33.3594 388.844 34.6719L388.891 34.7891ZM421.07 50.4922C418.727 50.4922 416.688 49.9609 414.953 48.8984C413.219 47.8203 411.875 46.3281 410.922 44.4219C409.984 42.5156 409.516 40.3125 409.516 37.8125V36.7812C409.516 34.375 410.008 32.2266 410.992 30.3359C411.992 28.4297 413.312 26.9297 414.953 25.8359C416.609 24.7266 418.414 24.1719 420.367 24.1719C422.648 24.1719 424.555 24.6406 426.086 25.5781C427.633 26.5156 428.797 27.8359 429.578 29.5391C430.359 31.2266 430.75 33.2188 430.75 35.5156V38.3984H414.297L414.227 38.5156C414.258 40.1406 414.539 41.5859 415.07 42.8516C415.617 44.1016 416.398 45.0859 417.414 45.8047C418.43 46.5234 419.648 46.8828 421.07 46.8828C422.633 46.8828 424 46.6641 425.172 46.2266C426.359 45.7734 427.383 45.1562 428.242 44.375L430.047 47.375C429.141 48.25 427.938 48.9922 426.438 49.6016C424.953 50.1953 423.164 50.4922 421.07 50.4922ZM414.438 34.7891H426.133V34.1797C426.133 32.9609 425.914 31.875 425.477 30.9219C425.055 29.9531 424.414 29.1953 423.555 28.6484C422.711 28.0859 421.648 27.8047 420.367 27.8047C419.336 27.8047 418.398 28.1094 417.555 28.7188C416.711 29.3125 416.016 30.125 415.469 31.1562C414.922 32.1875 414.562 33.3594 414.391 34.6719L414.438 34.7891ZM446.758 50.4922C444.461 50.4922 442.461 49.9609 440.758 48.8984C439.055 47.8203 437.734 46.3281 436.797 44.4219C435.859 42.5156 435.391 40.3125 435.391 37.8125V36.8281C435.391 34.4219 435.844 32.2656 436.75 30.3594C437.656 28.4531 438.961 26.9453 440.664 25.8359C442.367 24.7266 444.398 24.1719 446.758 24.1719C448.805 24.1719 450.594 24.5078 452.125 25.1797C453.672 25.8516 454.969 26.7734 456.016 27.9453L456.133 34.0391H452.523L451.727 29.6094C451.195 29.0625 450.531 28.625 449.734 28.2969C448.938 27.9688 448 27.8047 446.922 27.8047C445.547 27.8047 444.336 28.2109 443.289 29.0234C442.258 29.8359 441.453 30.9219 440.875 32.2812C440.297 33.6406 440.008 35.1562 440.008 36.8281V37.8125C440.008 39.6562 440.273 41.2578 440.805 42.6172C441.352 43.9766 442.125 45.0312 443.125 45.7812C444.141 46.5156 445.344 46.8828 446.734 46.8828C448.297 46.8828 449.594 46.4531 450.625 45.5938C451.656 44.7344 452.289 43.5547 452.523 42.0547H456.672L456.719 42.1953C456.641 43.6484 456.211 45.0078 455.43 46.2734C454.648 47.5391 453.531 48.5625 452.078 49.3438C450.641 50.1094 448.867 50.4922 446.758 50.4922ZM459.742 50V47.0469L463.562 46.3906V17.0703L459.742 16.4141V13.4375H468.18V28.0156C469.055 26.7969 470.125 25.8516 471.391 25.1797C472.656 24.5078 474.062 24.1719 475.609 24.1719C478.328 24.1719 480.438 24.9844 481.938 26.6094C483.438 28.2344 484.188 30.7344 484.188 34.1094V46.3906L488.008 47.0469V50H475.75V47.0469L479.57 46.3906V34.0625C479.57 31.9688 479.117 30.4219 478.211 29.4219C477.32 28.4219 475.984 27.9219 474.203 27.9219C472.938 27.9219 471.781 28.2266 470.734 28.8359C469.703 29.4297 468.852 30.2422 468.18 31.2734V46.3906L472 47.0469V50H459.742ZM492.836 50V45.2656H497.453V50H492.836ZM514.211 50.4922C511.914 50.4922 509.914 49.9609 508.211 48.8984C506.508 47.8203 505.188 46.3281 504.25 44.4219C503.312 42.5156 502.844 40.3125 502.844 37.8125V36.8281C502.844 34.4219 503.297 32.2656 504.203 30.3594C505.109 28.4531 506.414 26.9453 508.117 25.8359C509.82 24.7266 511.852 24.1719 514.211 24.1719C516.258 24.1719 518.047 24.5078 519.578 25.1797C521.125 25.8516 522.422 26.7734 523.469 27.9453L523.586 34.0391H519.977L519.18 29.6094C518.648 29.0625 517.984 28.625 517.188 28.2969C516.391 27.9688 515.453 27.8047 514.375 27.8047C513 27.8047 511.789 28.2109 510.742 29.0234C509.711 29.8359 508.906 30.9219 508.328 32.2812C507.75 33.6406 507.461 35.1562 507.461 36.8281V37.8125C507.461 39.6562 507.727 41.2578 508.258 42.6172C508.805 43.9766 509.578 45.0312 510.578 45.7812C511.594 46.5156 512.797 46.8828 514.188 46.8828C515.75 46.8828 517.047 46.4531 518.078 45.5938C519.109 44.7344 519.742 43.5547 519.977 42.0547H524.125L524.172 42.1953C524.094 43.6484 523.664 45.0078 522.883 46.2734C522.102 47.5391 520.984 48.5625 519.531 49.3438C518.094 50.1094 516.32 50.4922 514.211 50.4922ZM539.852 50.4922C537.508 50.4922 535.484 49.9453 533.781 48.8516C532.094 47.7422 530.789 46.2188 529.867 44.2812C528.945 42.3281 528.484 40.1016 528.484 37.6016V37.0859C528.484 34.5859 528.945 32.3672 529.867 30.4297C530.789 28.4766 532.094 26.9453 533.781 25.8359C535.484 24.7266 537.492 24.1719 539.805 24.1719C542.148 24.1719 544.164 24.7266 545.852 25.8359C547.555 26.9453 548.867 28.4688 549.789 30.4062C550.711 32.3438 551.172 34.5703 551.172 37.0859V37.6016C551.172 40.1172 550.711 42.3516 549.789 44.3047C548.867 46.2422 547.562 47.7578 545.875 48.8516C544.188 49.9453 542.18 50.4922 539.852 50.4922ZM539.852 46.8828C541.32 46.8828 542.547 46.4844 543.531 45.6875C544.531 44.875 545.281 43.7734 545.781 42.3828C546.297 40.9766 546.555 39.3828 546.555 37.6016V37.0859C546.555 35.3047 546.297 33.7188 545.781 32.3281C545.281 30.9219 544.531 29.8203 543.531 29.0234C542.531 28.2109 541.289 27.8047 539.805 27.8047C538.336 27.8047 537.102 28.2109 536.102 29.0234C535.102 29.8203 534.352 30.9219 533.852 32.3281C533.352 33.7188 533.102 35.3047 533.102 37.0859V37.6016C533.102 39.3828 533.352 40.9766 533.852 42.3828C534.352 43.7734 535.102 44.875 536.102 45.6875C537.117 46.4844 538.367 46.8828 539.852 46.8828ZM554.734 50V47.0469L558.555 46.3906V28.2734L554.734 27.6172V24.6406H562.703L563.008 27.9453C563.82 26.7422 564.867 25.8125 566.148 25.1562C567.43 24.5 568.914 24.1719 570.602 24.1719C572.289 24.1719 573.734 24.5625 574.938 25.3438C576.156 26.125 577.07 27.2969 577.68 28.8594C578.477 27.4219 579.531 26.2812 580.844 25.4375C582.156 24.5938 583.688 24.1719 585.438 24.1719C588.031 24.1719 590.078 25.0625 591.578 26.8438C593.078 28.6094 593.828 31.2734 593.828 34.8359V46.3906L597.648 47.0469V50H585.367V47.0469L589.188 46.3906V34.7891C589.188 32.2891 588.758 30.5234 587.898 29.4922C587.039 28.4453 585.766 27.9219 584.078 27.9219C582.469 27.9219 581.172 28.4922 580.188 29.6328C579.219 30.7578 578.656 32.1797 578.5 33.8984V46.3906L582.32 47.0469V50H570.062V47.0469L573.883 46.3906V34.7891C573.883 32.4141 573.438 30.6797 572.547 29.5859C571.672 28.4766 570.398 27.9219 568.727 27.9219C567.32 27.9219 566.164 28.2109 565.258 28.7891C564.352 29.3672 563.656 30.1797 563.172 31.2266V46.3906L566.992 47.0469V50H554.734Z" fill="#15304A"/>
<path d="M2.22727 11H46.7727C48.0028 11 49 11.9972 49 13.2273V47.3788C49 48.6088 48.0028 49.6061 46.7727 49.6061H40.0909V57.7727C40.0909 58.6032 39.629 59.3648 38.8923 59.7483C38.5686 59.9168 38.2157 60 37.8639 60C37.4149 60 36.9678 59.8644 36.5864 59.5975L22.313 49.6061H2.22727C0.997222 49.6061 -2.44379e-06 48.6088 -2.44379e-06 47.3788V13.2273C-2.44379e-06 11.9972 0.997222 11 2.22727 11ZM11.8788 36.9848H35.6364C36.8664 36.9848 37.8636 35.9876 37.8636 34.7576C37.8636 33.5275 36.8664 32.5303 35.6364 32.5303H11.8788C10.6487 32.5303 9.65151 33.5275 9.65151 34.7576C9.65151 35.9876 10.6487 36.9848 11.8788 36.9848ZM11.8788 26.5909H35.6364C36.8664 26.5909 37.8636 25.5937 37.8636 24.3636C37.8636 23.1336 36.8664 22.1364 35.6364 22.1364H11.8788C10.6487 22.1364 9.65151 23.1336 9.65151 24.3636C9.65151 25.5937 10.6487 26.5909 11.8788 26.5909Z" fill="#15304A"/>
</g>
<defs>
<clipPath id="clip0_1_10">
<rect width="600" height="63" fill="white"/>
</clipPath>
</defs>
</svg>
