<svg width="153" height="222" viewBox="0 0 153 222" fill="none" xmlns="http://www.w3.org/2000/svg">
<path d="M61.3611 1.06264C57.3789 2.56179 54.3806 4.57628 51.0544 8.04306C46.7443 12.5405 44.8235 16.9911 44.5893 23.1283C44.5425 25.5175 44.2614 26.923 43.8866 27.0167C41.2162 27.9068 38.7801 32.498 39.3891 35.4026C39.6234 36.4801 39.436 36.9954 38.4522 37.8855C34.7043 41.446 34.47 46.693 37.9368 50.8157L39.1549 52.268L38.1711 54.6104C36.8125 57.8898 37.2809 59.998 39.8576 62.481C40.9351 63.5116 42.2937 65.1982 42.9028 66.182C45.4326 70.2578 53.7248 71.8507 58.5501 69.1803L60.752 67.9154L60.4241 69.883C60.0024 72.8345 58.9718 75.458 57.8006 76.6761C56.442 78.1284 41.7784 85.2025 40.0919 85.2025C39.3891 85.2025 36.8593 85.9521 34.5169 86.8422C32.1745 87.7323 29.6446 88.4819 28.9888 88.4819C25.6157 88.4819 19.4785 94.01 14.6063 101.365C8.18805 111.11 5.00235 120.76 5.00235 130.645C5.00235 135.002 5.75193 136.642 8.75023 138.75L9.78089 139.453L7.86011 145.731C3.97168 158.52 1.48872 171.357 0.270656 184.802C-0.619465 194.734 0.692292 200.824 4.11223 202.605C5.23659 203.167 15.1216 205.275 25.5688 207.149C25.8968 207.196 24.9598 208.086 23.4606 209.117C20.7434 210.944 11.8891 219.564 11.0458 221.157C10.7179 221.766 10.7647 222 11.28 222C11.608 222 14.2315 219.704 16.9956 216.94C22.0083 211.974 26.6932 208.414 28.1455 208.414C28.5671 208.414 26.0842 211.272 22.5705 214.738C19.1037 218.205 16.246 221.25 16.246 221.532C16.246 221.766 17.0424 222 18.0262 222C19.6659 222 19.9939 221.766 22.0083 219.002C23.2264 217.315 25.7562 214.364 27.5833 212.396L30.9564 208.789L33.7205 209.023C35.2196 209.164 36.5782 209.398 36.7188 209.538C36.8593 209.679 36.1566 211.084 35.1259 212.724C34.0952 214.364 32.5024 217.081 31.5186 218.861C29.832 221.953 29.7852 222 30.8627 222C31.706 221.953 32.4556 221.11 34.2826 217.924C37.6557 212.115 39.8108 209.819 41.8252 209.819C42.7154 209.819 43.4181 209.913 43.4181 210.007C43.4181 210.1 42.2469 212.583 40.8414 215.488C38.1711 221.063 37.89 222 38.8738 222C39.2017 222 40.1387 220.36 40.982 218.346C42.6685 214.27 44.683 210.897 45.7137 210.522C46.0885 210.382 47.4939 210.382 48.8057 210.522L51.1949 210.85L50.1643 214.879C48.4309 221.953 48.4309 222 49.7426 222C50.3985 222 50.9138 221.953 50.9138 221.859C50.9138 221.016 52.0851 215.582 52.6941 213.661C53.3968 211.272 53.4905 211.178 54.8491 211.506C55.6455 211.646 57.2384 212.209 58.3628 212.677C59.4871 213.146 60.752 213.567 61.2205 213.567C63.0476 213.567 64.0314 215.066 64.3594 218.486C64.7341 221.625 64.781 221.766 66.0459 221.906C67.1703 222.047 67.3577 221.906 67.1234 221.204C66.9829 220.735 66.7486 219.704 66.6081 218.955C66.4207 218.158 66.1864 217.175 66.0459 216.706C65.6243 215.066 66.7486 216.003 68.7631 218.955C70.637 221.719 70.965 222 72.4641 222H74.1038L70.356 218.065C68.2946 215.91 66.0927 213.895 65.4837 213.567C64.4531 213.052 64.4062 212.818 64.6404 209.866C65.0621 205.041 67.4045 200.45 69.419 200.45C70.0749 200.45 70.7307 200.731 70.8713 201.106C71.0118 201.48 71.902 202.089 72.8389 202.464C74.2444 203.026 75.4156 203.073 79.2572 202.652L83.9889 202.183L88.1584 204.151C95.0451 207.43 98.3245 210.1 100.386 214.129C101.932 217.221 101.744 219.189 99.9173 219.189C99.8236 219.189 98.8867 217.924 97.8092 216.378C96.3569 214.317 94.8109 212.911 91.7657 210.897C89.517 209.398 87.5025 208.086 87.2214 207.992C86.1439 207.571 88.8611 210.1 91.9063 212.396C94.3424 214.176 95.6541 215.582 96.9659 217.83C97.9029 219.47 98.6056 221.11 98.465 221.391C98.3245 221.766 98.6993 222 99.402 222C100.245 222 100.573 221.766 100.573 221.063C100.573 220.548 100.807 220.126 101.042 220.126C101.323 220.126 101.51 220.548 101.51 221.063C101.51 221.859 101.838 222 103.853 222C105.164 222 106.195 221.906 106.195 221.813C106.195 221.625 103.946 215.488 103.103 213.38C102.869 212.771 102.916 212.583 103.244 212.771C103.525 212.958 104.555 215.113 105.539 217.549C106.898 220.969 107.507 222 108.163 222C109.287 222 109.1 221.25 106.851 216.425C105.211 212.865 104.93 211.459 105.727 210.288C106.851 208.601 109.802 214.598 110.739 220.454C111.067 222.468 112.051 222.422 112.754 220.313C113.41 218.299 113.082 215.629 111.77 212.677C111.302 211.553 110.927 210.522 111.02 210.428C111.114 210.335 113.082 212.911 115.377 216.144C118.095 219.939 119.828 222 120.39 222C120.952 222 121.14 221.813 120.905 221.391C119.922 219.798 114.019 211.787 113.082 210.71L111.957 209.538L113.035 208.18C114.066 206.868 114.206 206.821 115.705 207.383C117.767 208.133 118.704 208.086 119.032 207.243C119.359 206.353 120.25 206.306 120.25 207.149C120.25 208.648 123.154 211.787 125.543 212.911C126.902 213.52 128.308 214.036 128.682 214.036C129.057 214.036 129.994 214.364 130.744 214.738L132.055 215.441L131.727 213.239C131.259 210.194 129.947 206.821 128.401 204.807L127.136 203.12L128.214 202.324C129.291 201.527 130.322 201.48 134.585 202.136C135.428 202.23 136.834 202.886 137.771 203.495L139.457 204.619V203.542C139.457 201.808 138.239 198.295 137.068 196.655L135.991 195.156L137.162 195.484C137.771 195.671 139.457 196.046 140.863 196.327C142.268 196.608 143.814 197.123 144.283 197.545C145.501 198.623 145.548 198.154 144.611 195.343C143.533 192.064 142.409 190.565 140.113 189.393L138.239 188.456L139.645 186.723C140.816 185.224 140.957 184.802 140.582 183.678C140.207 182.6 139.832 182.366 138.052 182.179L135.944 181.945L137.49 181.101C139.739 179.883 141.003 180.211 141.378 182.038C142.034 185.224 144.47 186.348 148.593 185.411C150.701 184.943 151.263 184.943 151.919 185.505C152.622 186.067 152.669 186.02 152.341 184.99C151.825 183.163 149.905 180.399 148.593 179.555C146.532 178.197 144.095 178.056 140.348 178.993C138.427 179.462 136.319 180.258 135.663 180.773C134.164 181.851 133.086 181.195 133.882 179.743C134.257 179.04 134.117 178.384 133.18 176.838L132.009 174.87L133.508 172.575C135.569 169.389 135.803 165.688 134.117 161.893C132.711 158.661 131.118 156.318 130.556 156.646C130.322 156.787 129.994 157.583 129.807 158.427C129.666 159.223 128.87 161.425 128.167 163.299C127.417 165.126 126.808 167.422 126.808 168.359C126.808 169.764 126.668 170.045 126.059 169.811C125.637 169.67 125.216 169.53 125.122 169.53C125.028 169.53 124.934 168.733 124.934 167.749C124.934 166.485 124.606 165.641 123.951 165.032C122.967 164.142 122.967 163.955 123.248 155.007C123.435 149.994 123.763 143.248 123.997 140.062L124.466 134.253L126.808 131.77C129.151 129.287 129.151 129.287 129.151 126.101C129.151 121.651 127.511 110.922 126.059 105.956C124.419 100.288 121.983 95.8839 118.516 92.4171C116.408 90.2621 115.096 89.3251 113.597 88.9504C112.52 88.6693 108.912 87.5918 105.68 86.5611C102.213 85.4836 98.9804 84.734 97.9497 84.7808C96.5911 84.8745 95.0451 84.3592 92.1405 82.8601C85.5817 79.5807 85.5817 79.5807 85.5817 75.8796C85.5817 72.7408 85.6286 72.6471 86.9872 72.0849C88.8143 71.3353 90.9693 68.8524 91.672 66.7442C91.9999 65.7604 92.4216 65.1982 92.7964 65.3387C93.1243 65.4793 93.7333 65.1982 94.155 64.7297C94.764 63.9801 94.8109 63.6522 94.3424 62.7152C93.827 61.6846 93.9676 60.9818 95.5136 56.906C97.5749 51.7058 98.0903 48.1922 97.3875 44.4443C96.919 41.8677 96.919 41.8677 98.5587 40.228C101.135 37.6513 101.698 36.199 101.651 32.2637C101.604 28.469 100.386 24.1121 98.4182 20.739C97.8092 19.6615 97.3875 18.4903 97.5749 18.0686C97.9497 17.0848 95.9352 12.5405 95.2325 12.9153C94.9514 13.1027 94.9982 12.8685 95.3262 12.4468C96.1226 11.5098 95.6541 8.88633 94.6703 8.51155C94.2955 8.371 93.6865 7.57458 93.2649 6.68446C92.5621 5.23215 91.9531 4.85737 90.5008 5.04476C90.2666 5.04476 89.6575 4.43573 89.189 3.63931C88.4863 2.3744 88.1584 2.187 86.7529 2.3744C85.488 2.51494 85.0664 2.3744 84.5979 1.48428C83.8952 0.172519 82.0212 -0.389662 80.85 0.313065C80.2878 0.687852 79.6788 0.687852 78.6481 0.313065C77.6643 -0.0617229 76.8679 -0.108571 76.1183 0.219368C75.5093 0.500459 74.5255 0.547307 73.8696 0.359913C73.2137 0.172519 70.8244 0.031974 68.482 0.031974C65.2026 -0.0148745 63.6098 0.219368 61.3611 1.06264ZM73.4011 1.53112C73.8696 1.71852 74.1038 2.46809 74.1038 3.87355C74.1038 5.04476 74.2444 5.84118 74.4318 5.74749C74.666 5.60694 74.8066 5.84118 74.8066 6.21597C74.8066 7.24664 73.9164 7.62143 73.0732 6.9187C72.4641 6.40337 72.2767 6.45021 71.7614 7.10609C71.2461 7.80882 71.1992 7.62143 71.2461 5.74749C71.2929 4.06094 71.574 3.35821 72.4641 2.60864L73.6353 1.67167L72.4641 1.95276C71.8083 2.09331 70.028 2.3744 68.482 2.51494C64.2657 3.03028 58.9249 4.90421 56.3951 6.7313C53.9121 8.60524 51.1012 12.5874 49.8832 16.101C49.3678 17.5533 49.0868 19.8489 49.0399 22.1444C49.0399 25.1428 48.9462 25.7518 48.4777 25.2833C48.0561 24.9085 47.8687 23.3625 47.8687 20.8795C47.8687 17.6001 48.1029 16.6163 49.321 13.946C52.1788 7.90252 57.8943 3.12397 64.172 1.53112C66.4675 0.922095 71.8551 0.968943 73.4011 1.53112ZM77.8986 1.25003C78.7887 1.81222 79.4914 3.54561 79.4914 5.04476C79.4914 6.35652 79.3509 6.49706 77.9454 6.49706C75.0408 6.49706 73.9164 3.68615 76.0246 1.62482C76.821 0.781549 77.149 0.734701 77.8986 1.25003ZM83.5204 2.04646C84.551 3.63931 84.0826 6.49706 82.7708 6.49706C82.2555 6.49706 81.8338 6.30967 81.8338 6.02858C81.8338 5.79434 81.5059 5.70064 81.1311 5.84118C79.5383 6.45021 79.913 2.32755 81.5527 1.25003C82.396 0.687852 82.724 0.828398 83.5204 2.04646ZM88.2989 3.77985C89.8449 5.32585 87.5493 8.04306 85.6286 6.96555C84.5042 6.40337 84.4573 6.02858 85.2069 4.38888C85.7691 3.12397 87.3151 2.79603 88.2989 3.77985ZM68.7163 4.15464C70.1217 4.90421 70.7307 6.30967 70.1217 7.43403C69.4658 8.65209 68.0135 8.60524 67.1234 7.34033C66.5144 6.49706 66.3738 6.45021 66.3738 7.05924C66.3738 7.48088 66.6081 7.99621 66.8423 8.13676C67.545 8.55839 67.4045 9.30797 66.6081 9.30797C64.781 9.30797 64.6873 5.65379 66.5144 4.38888C67.6856 3.54561 67.5919 3.54561 68.7163 4.15464ZM64.4999 7.38718C64.4999 8.18361 64.7341 8.93318 64.9684 9.07373C65.6711 9.49536 65.5306 10.2449 64.781 10.2449C63.844 10.2449 62.0169 7.57458 62.3449 6.7313C62.4854 6.35652 63.0476 6.02858 63.5629 6.02858C64.2657 6.02858 64.4999 6.35652 64.4999 7.38718ZM92.3747 6.54391C92.5621 6.825 92.2342 7.52773 91.672 8.13676C90.7819 9.07373 90.4539 9.16742 89.6107 8.74579C88.1584 7.99621 88.1584 7.99621 89.0953 6.96555C89.9855 5.98173 91.9063 5.70064 92.3747 6.54391ZM85.3943 8.13676C90.6882 9.68276 96.7316 14.6955 96.2632 17.0848C96.1695 17.7875 95.8884 17.6001 95.0919 16.2884C92.0936 11.1351 82.2555 8.18361 73.9633 9.96385C66.9829 11.4162 56.8168 17.5065 52.3193 22.9409C51.1949 24.2058 50.2111 25.1896 50.1174 25.0491C50.0237 24.9554 50.3517 24.0184 50.867 23.0346C53.35 18.1155 64.9684 10.3386 73.12 8.13676C76.3057 7.29349 82.5366 7.29349 85.3943 8.13676ZM92.5621 9.35482C92.2342 10.0107 91.9063 10.1981 91.5783 9.87015C90.9693 9.26112 91.4846 8.371 92.4216 8.371C92.9838 8.371 93.0306 8.55839 92.5621 9.35482ZM62.7197 10.0575C63.1881 10.9945 63.1413 11.3225 62.626 11.6504C61.8295 12.1189 60.5178 11.5098 60.0961 10.4323C59.3934 8.55839 61.8764 8.18361 62.7197 10.0575ZM94.8577 10.854C94.9514 11.3225 94.7172 11.6504 94.2955 11.6504C93.4523 11.6504 92.9369 10.9008 93.3117 10.1981C93.7333 9.54221 94.6703 9.917 94.8577 10.854ZM56.7231 12.4937C58.2222 14.6955 58.2691 15.1172 56.7699 14.7892C56.114 14.6955 55.6924 14.6955 55.7861 14.8361C56.2077 15.2109 55.1302 16.8037 54.4275 16.8037C53.4905 16.8037 52.6472 15.1172 53.022 13.9928C53.2094 13.4775 53.7248 13.0558 54.2401 13.0558C54.896 13.0558 55.1302 12.7279 55.1302 11.8846C55.1302 11.2288 55.2239 10.7134 55.3176 10.7134C55.4113 10.7134 56.0203 11.5098 56.7231 12.4937ZM59.8151 11.4162C60.1898 11.8846 60.2367 12.3063 60.0024 12.5405C59.3934 13.1495 57.4726 12.2594 57.4726 11.4162C57.4726 10.4792 59.0655 10.526 59.8151 11.4162ZM84.1763 15.5857C77.3832 17.6001 74.666 19.802 69.8875 27.1104C68.2946 29.5465 66.0459 32.4511 64.8747 33.4818C60.9394 37.136 54.4275 38.4477 50.1643 36.5269C49.0868 36.0584 48.1029 35.4494 47.9155 35.1683C47.775 34.9341 48.4309 35.1215 49.4147 35.6368C51.8977 36.9486 57.8006 36.6675 60.752 35.1683C63.6098 33.6692 67.0297 30.2961 69.0442 26.8761C69.9812 25.3301 71.1524 23.5499 71.6209 22.9409C72.0894 22.3318 72.3236 21.6291 72.1362 21.3012C71.9957 21.0201 71.9957 20.9264 72.2299 21.1138C72.4173 21.3012 73.5417 20.5985 74.7597 19.5678C78.2265 16.4758 82.5834 14.6018 86.2844 14.555C87.1746 14.5081 86.425 14.8829 84.1763 15.5857ZM47.2128 16.3821C46.9786 16.9911 46.7443 17.2722 46.7443 16.9443C46.6975 16.2415 47.2128 14.8361 47.4471 15.0703C47.5876 15.164 47.4471 15.7731 47.2128 16.3821ZM91.3441 19.2867C94.6235 22.7535 96.31 27.0635 96.3569 31.9358C96.3569 33.9971 96.31 34.1377 95.4199 33.6692C94.2487 33.0601 89.189 34.9809 88.9548 36.1521C88.7206 37.2297 89.9855 37.136 92.3747 36.0116C94.9982 34.7467 96.1695 34.7935 96.5443 36.2458C96.7316 36.9017 96.638 37.8387 96.3569 38.354C95.8415 39.3378 94.9514 39.6189 94.9514 38.8225C94.9514 38.5414 94.0144 38.354 92.8901 38.354C91.1098 38.354 90.6882 38.5414 89.5638 40.0406C88.2052 41.8208 88.4395 42.5235 90.5008 42.5704C91.0161 42.5704 91.8594 42.7109 92.3747 42.8515C92.9838 42.992 93.7802 42.7109 94.4829 42.1019L95.6541 41.0712L96.2163 44.0695C96.5443 45.6624 96.7785 47.7706 96.7785 48.6607C96.8253 51.6121 90.735 67.4938 88.7674 69.6019C87.4556 70.9605 84.6916 71.757 82.396 71.3353C77.6643 70.4921 70.6839 67.1658 66.4675 63.7927C64.2657 62.0125 63.2818 60.2791 61.7358 55.5474C61.1268 53.814 60.5178 52.4086 60.2835 52.4086C60.0961 52.4086 59.6277 52.7365 59.2997 53.1581C58.7375 53.8609 58.6438 53.814 58.4096 52.8302C58.1754 51.9401 57.8006 51.7058 56.7699 51.7058C55.1302 51.7058 53.4905 49.8787 52.7878 47.2552C52.0382 44.538 52.1788 43.9758 53.6311 43.9758C54.6617 44.0227 55.0834 44.3975 55.8329 45.9435C56.7699 47.9111 58.4564 49.2229 57.7537 47.4426C57.5195 46.9273 57.2852 45.7561 57.1447 44.8191C56.9104 43.2263 57.0041 43.0857 58.7844 42.1487C61.5016 40.7433 62.8134 39.291 68.2478 31.2799C75.6498 20.4111 76.3526 19.7552 83.2393 17.7407C85.1601 17.1785 87.1746 16.3352 87.6899 15.8199C88.6269 14.9298 88.6269 14.9298 88.9079 15.9605C89.0953 16.5695 90.1729 18.0686 91.3441 19.2867ZM64.2657 16.9443C63.235 17.7407 61.3142 19.3804 60.0493 20.5516C55.6455 24.4869 54.896 25.0022 57.7069 22.0039C60.0961 19.5209 65.1089 15.4451 65.9054 15.4451C66.0459 15.4451 65.2963 16.101 64.2657 16.9443ZM75.0408 17.8344C72.7921 20.3642 72.0894 21.0669 72.9326 19.8489C73.7759 18.6777 76.3526 15.8668 76.5868 15.8668C76.6805 15.8668 75.9778 16.7569 75.0408 17.8344ZM53.022 16.9443C53.4905 17.3191 53.6779 17.7407 53.3968 17.8812C52.6941 18.3497 50.9138 17.6938 50.9138 16.9911C50.9138 16.1478 51.8977 16.1478 53.022 16.9443ZM96.2632 20.13C98.8398 22.8003 101.089 28.8906 100.995 33.2007C100.948 37.0891 100.339 36.9486 100.292 33.0601C100.292 29.6402 100.105 28.7969 98.6056 25.6112C97.5281 23.2688 96.0758 21.1606 94.5298 19.6146C92.7495 17.8344 92.5153 17.4596 93.4991 17.9281C94.2018 18.3029 95.4199 19.2867 96.2632 20.13ZM46.5569 18.7714C46.4164 19.1461 46.2758 19.0056 46.2758 18.4903C46.229 17.9749 46.3695 17.6938 46.5101 17.8812C46.6506 18.0218 46.6975 18.4434 46.5569 18.7714ZM52.4598 18.5371C52.8815 18.9588 51.8508 20.13 51.3355 19.802C50.6796 19.4272 50.8201 18.2092 51.5229 18.2092C51.8977 18.2092 52.3193 18.3497 52.4598 18.5371ZM62.2043 22.7535C61.3611 24.3463 56.7699 28.4221 54.6617 29.4997C53.3968 30.2024 51.476 30.6709 49.6958 30.7646C47.2128 30.952 46.6506 30.8114 45.8074 29.9681C45.2452 29.406 44.8235 28.7501 44.8235 28.5158C44.8235 27.9068 46.5569 26.1734 47.166 26.1734C47.8218 26.1734 47.7282 27.2978 47.0723 27.9537C46.0885 28.9375 47.5876 29.5465 50.3048 29.2654C53.3968 28.9843 57.6132 26.7824 60.3304 24.0184C62.5323 21.7697 62.9071 21.5354 62.2043 22.7535ZM42.6217 31.1862C41.6847 33.0601 41.5442 33.8566 41.8252 35.7305C42.1532 38.2603 41.3568 38.4477 40.8414 35.9647C40.4198 33.9971 40.8883 31.6547 42.0595 30.2024C43.5586 28.2816 43.8397 28.7969 42.6217 31.1862ZM44.9641 34.7467C44.7298 37.6044 44.7298 37.745 46.2758 39.3847C47.9624 41.1649 51.5229 42.5235 54.6149 42.6172L56.3014 42.6641L54.7554 43.0857C52.7878 43.6479 48.2903 42.8983 46.7443 41.7271C43.8397 39.5721 42.8091 36.4801 44.074 33.5286C44.4488 32.5917 44.8704 31.7952 45.0109 31.7952C45.1515 31.7952 45.1515 33.107 44.9641 34.7467ZM40.4198 39.4315C39.9982 39.9937 39.2954 40.9775 38.8738 41.5866C37.562 43.3668 37.8431 46.8336 39.3891 48.8949C40.8414 50.7689 40.7009 51.659 39.1549 50.2535C36.1097 47.5832 36.1566 41.7271 39.2017 38.9162C40.5135 37.6981 41.4036 38.0729 40.4198 39.4315ZM43.2307 43.1326C42.7622 43.7884 42.4811 45.1939 42.4811 46.7867C42.4343 49.3634 42.4343 49.3634 41.7315 48.0517C40.8883 46.4588 41.2631 44.0227 42.5748 42.5704C43.746 41.3055 44.2145 41.6803 43.2307 43.1326ZM44.8235 46.0372C44.2145 47.6769 44.2145 50.5815 44.8235 52.2212C45.2452 53.3455 45.2452 53.3924 44.5893 52.877C44.2145 52.5491 43.6523 51.5184 43.3712 50.5346C42.9028 49.0355 42.9965 48.4733 43.8397 46.5525C44.8704 44.2101 45.6668 43.7884 44.8235 46.0372ZM47.6345 48.0048C46.7443 50.3004 47.4471 54.0951 49.0868 55.7348C50.0706 56.7186 49.6489 56.9529 48.4777 56.0159C47.6345 55.4069 46.6975 52.4554 46.6975 50.4409C46.6975 49.1292 47.4471 46.7867 47.8687 46.7867C47.9624 46.7867 47.8687 47.3489 47.6345 48.0048ZM57.7537 52.4554C58.2222 53.2518 57.1447 54.142 56.4888 53.4861C55.9266 52.9239 56.3014 51.9401 57.0041 51.9401C57.2384 51.9401 57.5663 52.1743 57.7537 52.4554ZM42.6685 53.2518C42.8091 53.4861 42.2937 54.142 41.5442 54.6573C39.8108 55.969 39.2954 58.3115 40.3261 60.3259C41.2162 62.0125 40.5603 62.2936 39.4828 60.7476C38.4522 59.2953 38.5459 56.2501 39.6702 54.3762C40.5603 52.9707 42.1063 52.3617 42.6685 53.2518ZM61.689 58.4989C62.2512 60.0449 64.0314 62.8558 66.1864 65.5261C70.1217 70.4921 78.4607 79.1122 79.304 79.1122C79.9599 79.1122 83.6609 75.0364 83.7546 74.2399C83.8952 73.0687 84.5979 77.7067 84.6916 80.2834C84.7384 81.9231 84.879 82.4853 84.9727 81.642L85.1601 80.1428L88.2989 81.9231C90.0323 82.9069 92.7964 84.4061 94.4829 85.2493C98.9335 87.5449 98.8867 87.9665 93.5459 98.7885C88.8143 108.346 85.3006 116.45 83.6609 121.744C83.0519 123.665 82.4897 125.352 82.4429 125.445C82.1618 125.82 78.6481 122.166 74.9003 117.762C68.5289 110.266 56.3951 96.8209 52.7878 93.2604C50.867 91.3396 47.9624 88.9504 46.3695 87.8728L43.4181 85.9521L50.6796 82.251C58.6907 78.2221 59.6745 77.2851 60.9394 73.0687C62.0169 69.3677 61.9232 62.3873 60.752 58.2646C59.206 52.9239 59.6745 53.0644 61.689 58.4989ZM46.6975 55.2663C46.6975 55.5474 46.2758 56.297 45.7605 56.9529C44.4956 58.5457 43.746 61.4972 44.1208 63.3242C44.3082 64.1675 45.1046 65.6198 45.8542 66.6505C46.9786 68.0559 47.0723 68.337 46.3227 67.9154C42.9496 66.1352 41.7784 61.3566 43.6992 57.4682C44.7767 55.3132 46.6975 53.9077 46.6975 55.2663ZM58.4096 56.8123C57.8006 57.4213 56.7699 56.4844 57.2384 55.688C57.4726 55.3132 57.7537 55.3132 58.2222 55.7348C58.6907 56.1096 58.7844 56.4375 58.4096 56.8123ZM59.3466 61.2629C59.3466 61.8251 59.206 61.8251 58.7844 61.4035C58.4096 61.0287 58.0817 60.9818 57.6132 61.3566C57.1915 61.7314 57.0041 61.7314 57.0041 61.4035C57.0041 61.1224 57.2384 60.7476 57.4726 60.607C57.7537 60.4665 57.9411 59.8575 57.9411 59.2953C57.988 58.3115 57.988 58.3115 58.6438 59.4358C59.0186 60.0917 59.2997 60.935 59.3466 61.2629ZM59.2529 63.3242C59.3466 63.8864 59.1123 64.1207 58.4564 64.1207C57.8943 64.1207 57.4726 63.8396 57.4726 63.5116C57.4726 62.0593 58.9718 61.9188 59.2529 63.3242ZM94.0144 63.9333C94.0144 64.3081 93.6865 64.5892 93.3117 64.5892C92.609 64.5892 92.3279 63.6053 92.8901 63.0432C93.3586 62.6215 94.0144 63.1369 94.0144 63.9333ZM44.1208 87.4981C48.4777 90.0279 53.3968 94.8533 64.5467 107.456C73.4011 117.481 77.4301 122.4 76.4463 122.025C67.4982 118.418 58.9718 118.231 47.8218 121.463L42.5748 122.962L42.2937 118.231C41.8721 112.14 40.8414 105.207 39.9513 102.536C39.4828 101.178 39.2954 100.944 39.436 101.834C40.2792 106.987 40.1855 125.726 39.3891 124.883C39.2486 124.743 38.8738 123.103 38.5459 121.229L37.89 117.762L37.8431 124.789L37.7494 131.817L35.8755 126.898C34.798 124.18 33.861 121.885 33.7205 121.744C33.3457 121.369 34.0016 124.321 35.5476 129.802C36.9062 134.674 36.9999 137.673 35.8755 137.673C35.6412 137.673 34.4232 136.923 33.1583 136.033C30.2537 133.925 26.3184 132.191 22.3831 131.301C18.2605 130.318 11.3269 130.599 9.17186 131.864C6.5952 133.41 6.45465 134.112 8.28174 136.127L9.92144 137.907L8.0475 136.127C6.22041 134.44 6.17356 134.3 6.22041 131.442C6.26726 126.991 7.20423 121.276 8.56283 116.966C11.9359 106.191 21.3993 93.1199 27.9113 90.2153C30.7222 88.9972 32.5024 89.4188 35.5007 92.1361C36.8593 93.3541 37.7026 93.9163 37.4683 93.401C36.7656 92.1361 35.0322 90.5901 33.4394 89.7468L32.1276 89.0441L36.016 87.6386C38.1711 86.8422 40.3261 86.1863 40.8414 86.1863C41.3568 86.1395 42.8559 86.7485 44.1208 87.4981ZM105.586 87.826C108.584 88.763 111.395 89.9342 111.864 90.4027C112.332 90.8711 113.082 92.464 113.55 93.9631C114.534 97.2425 114.675 107.081 113.738 112.14L113.175 115.42H106.289C100.292 115.42 99.0272 115.56 96.4037 116.497C93.0306 117.715 88.9079 120.198 86.6592 122.353C85.816 123.15 85.0195 123.665 84.8321 123.525C84.0357 122.681 88.4395 111.672 94.2955 99.9597C97.247 94.0568 99.3552 89.3251 99.4957 88.1071C99.6363 87.0296 99.8705 86.1395 99.9642 86.1395C100.105 86.1395 102.635 86.889 105.586 87.826ZM115.518 91.0117C119.5 93.5415 123.623 100.335 125.403 107.315C126.434 111.578 127.652 119.402 128.073 124.649L128.354 128.35L126.059 130.552C124.747 131.77 121.983 133.644 119.875 134.768L116.033 136.783V133.831C116.08 132.191 116.361 129.521 116.736 127.835C117.111 126.148 117.532 122.588 117.673 119.87L117.954 114.951L116.876 117.294C114.628 122.213 114.534 122.072 114.956 114.951C115.143 111.344 115.33 105.347 115.33 101.599C115.33 95.556 115.19 94.5722 114.253 92.5108C112.801 89.3251 112.801 89.3251 115.518 91.0117ZM110.271 117.106C112.051 117.762 112.285 118.277 112.285 121.604C112.285 123.197 112.613 126.804 113.035 129.568C114.581 139.781 112.988 145.778 106.664 153.835C105.305 155.569 104.743 155.897 103.431 155.944H101.838L102.822 154.866C103.946 153.695 106.898 147.605 106.523 147.23C106.429 147.089 105.867 147.745 105.305 148.635C102.775 152.711 94.1081 159.223 91.1567 159.223C89.9855 159.223 89.189 159.551 88.4395 160.347C87.5025 161.331 87.1746 161.425 86.2844 161.003C85.3943 160.582 84.8321 160.722 83.4735 161.519C81.9744 162.362 81.5996 162.409 80.0067 161.94L78.1797 161.378L77.6643 157.255C77.1958 153.508 75.4156 146.715 75.0408 147.136C74.9471 147.183 75.0877 148.354 75.3219 149.619C76.1183 153.835 76.5868 159.41 76.2589 160.066C75.7435 160.956 72.7452 156.881 69.419 150.884C67.9667 148.261 66.6549 146.105 66.5612 146.105C66.4207 146.105 66.7018 146.808 67.1234 147.605C67.5919 148.448 68.9505 151.68 70.1686 154.772C72.0894 159.692 72.511 160.394 73.5417 160.535C74.1975 160.629 74.9471 160.956 75.275 161.284C75.6498 161.8 75.4156 162.128 74.1975 162.877L72.6047 163.814L70.5902 162.221C69.4658 161.331 68.482 160.722 68.3415 160.816C68.0135 161.144 69.8875 164.002 71.2461 165.267C71.902 165.922 72.4641 166.813 72.4641 167.281C72.4641 168.031 72.2299 168.031 69.7938 166.906C66.1396 165.313 65.6711 164.798 64.7341 161.191C64.2657 159.457 63.2818 156.365 62.5323 154.304C61.0331 150.181 56.2077 140.156 55.505 139.734C55.2239 139.547 55.2239 139.781 55.505 140.343C56.2546 141.702 59.6277 151.727 61.2205 157.162C62.0169 159.832 62.7665 162.362 62.9539 162.83C63.4224 163.955 59.2997 160.956 56.7699 158.239C54.6149 155.944 52.3661 151.868 51.3823 148.542C51.0544 147.464 50.6796 146.668 50.5391 146.761C50.1174 147.183 51.5229 152.055 53.022 155.335C54.8491 159.364 57.5195 162.315 61.4547 164.798C63.0476 165.829 64.4999 166.953 64.6404 167.328C65.1089 168.499 65.5774 172.341 65.2495 172.341C65.0621 172.341 63.4224 171.591 61.5484 170.654C54.2869 166.953 49.8832 163.205 46.1353 157.349C43.5586 153.32 43.1839 153.367 45.3857 157.443C48.1966 162.69 52.5067 166.672 60.752 171.544C68.5757 176.182 69.2316 176.932 67.5919 179.181C66.936 180.071 66.8892 180.024 64.6404 178.993L62.3917 177.916L63.6098 178.993C64.2657 179.602 65.5306 180.633 66.4207 181.382C67.7793 182.507 67.6856 182.46 65.4369 181.101C61.1737 178.525 58.4096 176.979 58.4096 177.166C58.4096 177.494 64.0783 181.336 66.5612 182.741C68.81 183.959 68.8568 184.053 67.545 184.053C66.7955 184.053 65.5774 184.334 64.9215 184.709C63.844 185.271 62.8134 185.224 57.4258 184.428C53.959 183.959 49.5552 183.163 47.6345 182.741L44.1677 181.945L43.746 180.071C43.5118 179.04 42.1063 173.043 40.6072 166.719C36.1097 147.933 36.1566 148.214 38.9675 140.858C40.6072 136.689 41.7315 132.004 42.2937 127.226L42.6217 124.602L46.1822 123.431C51.8977 121.51 56.442 120.714 61.689 120.714C69.3253 120.667 75.4624 122.634 80.85 126.944C82.1618 127.975 83.4267 128.772 83.6141 128.678C83.8483 128.631 85.1601 127.179 86.5655 125.539C89.6575 121.838 94.0144 118.793 97.9029 117.575C101.182 116.544 108.069 116.263 110.271 117.106ZM115.799 124.18C114.862 127.507 113.972 128.725 114.394 126.242C114.768 123.946 116.127 120.433 116.361 121.135C116.455 121.416 116.221 122.775 115.799 124.18ZM25.1003 135.19C28.9419 136.455 33.3925 139.125 33.8142 140.484C34.1421 141.514 33.5799 144.981 31.8934 152.43C29.832 161.425 27.4428 168.452 23.6949 176.51L21.7741 180.633L19.4785 180.914C17.0893 181.195 13.1071 183.069 11.7954 184.521C11.3269 185.037 11.9359 184.896 13.7162 184.006C18.729 181.476 21.4462 182.038 36.9062 189.112C41.4505 191.174 47.9155 193.75 51.1949 194.781C59.0655 197.217 65.4369 199.044 66.6081 199.232C67.6387 199.419 67.6387 200.403 66.5612 201.246C66.1396 201.527 65.2495 203.495 64.4999 205.556C63.7972 207.618 63.0476 209.164 62.8134 208.976C62.5791 208.789 62.7197 209.023 63.0476 209.445C63.5629 210.147 63.5629 210.428 63.0944 210.991C62.6728 211.459 62.6728 211.693 63.0476 211.693C63.3287 211.693 63.5629 212.021 63.5629 212.396C63.5629 213.38 63.4224 213.333 60.0493 211.412C58.4096 210.522 56.3483 209.585 55.505 209.304C52.413 208.414 38.6864 206.072 28.4266 204.666C22.6174 203.916 15.4496 202.698 12.4981 202.043C2.42568 199.794 1.9572 199.185 2.00405 189.206C2.00405 183.865 2.33199 180.539 3.5032 173.652C5.79877 160.019 8.70338 147.698 11.8891 138.141C13.1071 134.487 13.3414 134.112 14.6063 133.878C16.9019 133.41 21.3993 133.972 25.1003 135.19ZM122.639 142.92C122.358 146.855 122.077 153.226 122.03 157.021C121.889 164.892 122.405 164.283 117.579 162.643C116.221 162.175 115.096 161.612 115.096 161.425C115.096 161.191 114.675 160.488 114.159 159.832C112.848 158.146 112.988 155.663 114.581 151.634C116.127 147.745 116.97 144.091 116.97 141.467C116.97 139.781 117.158 139.5 119.266 138.141C120.531 137.345 121.842 136.361 122.17 135.986C122.451 135.611 122.826 135.424 122.92 135.518C123.06 135.658 122.92 138.985 122.639 142.92ZM38.4053 164.142C43.0902 182.741 44.0271 189.675 41.9189 189.675C41.1694 189.675 25.9436 182.647 25.2877 182.038C24.8193 181.617 25.1003 180.586 26.3653 177.494C29.9257 169.014 31.6591 163.861 33.2051 157.724C34.0484 154.21 34.8917 151.493 35.0791 151.634C35.2196 151.821 36.7188 157.443 38.4053 164.142ZM101.276 155.897C101.135 156.178 100.62 156.412 100.198 156.412C99.4957 156.365 99.4957 156.318 100.292 155.709C101.276 154.96 101.791 155.1 101.276 155.897ZM109.615 158.661C110.224 159.223 111.067 159.692 111.442 159.692C112.285 159.692 113.691 160.91 113.691 161.612C113.691 161.847 112.988 162.034 112.145 162.034C110.927 162.034 110.458 161.753 110.037 160.863C109.428 159.504 107.507 158.895 105.961 159.598C105.164 159.973 104.649 159.926 103.853 159.364C103.29 158.989 102.353 158.755 101.698 158.895C101.089 158.989 100.573 158.942 100.573 158.755C100.573 158.005 102.869 157.49 105.633 157.583C107.882 157.63 108.819 157.911 109.615 158.661ZM132.43 160.91C132.43 161.425 131.868 162.362 131.212 163.018C129.619 164.517 129.057 165.594 128.635 167.89L128.354 169.764L128.261 168.124C128.261 167.234 128.776 164.845 129.479 162.737C130.135 160.675 130.79 158.661 130.884 158.286C131.165 157.349 132.383 159.504 132.43 160.91ZM99.8705 159.223C99.73 159.457 99.1678 159.692 98.6524 159.692C97.7155 159.692 97.4812 160.816 98.1371 161.94C98.3713 162.268 99.6363 163.111 101.042 163.814C103.806 165.22 104.696 166.766 104.743 170.373C104.836 174.683 102.166 177.025 97.1533 177.025C93.218 177.025 92.1405 176.229 91.8126 173.09L91.5315 170.841L92.7964 172.106C94.155 173.465 96.7316 174.683 98.2308 174.683C98.793 174.683 99.0741 174.87 98.9335 175.152C98.2308 176.276 94.2487 174.87 92.7495 172.903C92.1873 172.247 92.1405 172.247 92.1405 172.903C92.1405 173.933 94.2018 175.479 96.3569 176.135C97.8092 176.604 98.4182 176.51 100.245 175.714C103.056 174.449 104.04 172.95 103.712 170.186C103.431 167.703 102.635 166.672 99.4489 164.892C92.8901 161.144 88.7206 163.955 87.2214 172.997C86.9403 174.683 86.8466 174.777 85.5349 174.496C84.7853 174.355 84.1763 174.402 84.1763 174.589C84.1763 174.777 83.6141 175.667 82.9113 176.51L81.5996 178.056L79.2572 177.447C77.4301 176.979 77.149 176.791 77.9454 176.604C78.9292 176.323 82.9113 173.699 85.4412 171.638C86.2844 170.935 86.8466 169.623 87.643 166.063C88.2521 163.533 89.0485 161.238 89.3764 161.003C89.7512 160.769 90.7819 160.722 91.672 160.863C96.8722 161.706 96.8253 161.706 96.8253 160.769C96.8253 160.301 97.0596 159.645 97.3875 159.317C98.0434 158.661 100.292 158.567 99.8705 159.223ZM105.727 160.347C109.1 160.394 109.802 160.863 108.537 162.175C108.022 162.737 107.273 163.627 106.945 164.142C106.336 164.939 106.101 164.985 105.399 164.47C104.93 164.142 103.572 163.393 102.353 162.877C100.948 162.221 100.105 161.565 100.105 161.05C100.105 160.066 100.948 159.645 102.213 160.019C102.728 160.207 104.321 160.347 105.727 160.347ZM86.425 163.111C86.7998 163.533 86.7998 164.283 86.3781 165.641L85.816 167.562L84.2231 166.906C82.0681 166.016 81.2716 166.063 79.3509 167.375C78.4139 168.031 77.6175 168.312 77.5238 168.077C77.4301 167.843 76.6337 168.265 75.6498 169.061C73.729 170.654 73.4011 170.373 73.4011 167.14C73.4011 165.548 73.6353 165.173 74.9003 164.376C76.9616 163.158 78.7887 162.784 79.9599 163.439C80.9437 163.955 80.9437 164.002 80.1004 164.939C79.5851 165.548 80.2878 165.22 81.8338 164.236C84.551 162.409 85.6286 162.128 86.425 163.111ZM117.579 163.861C118.516 164.33 120.109 164.892 121.046 165.079C123.857 165.594 124.138 166.11 123.248 169.014C123.107 169.53 122.686 169.342 121.749 168.452C120.999 167.749 120.203 167.187 119.968 167.187C119.687 167.187 119.078 166.766 118.61 166.25C117.204 164.657 114.019 163.767 111.255 164.095C109.662 164.33 108.959 164.283 109.24 164.002C110.505 162.784 115.284 162.69 117.579 163.861ZM134.304 166.953C134.304 168.921 134.023 169.764 132.899 171.31C132.102 172.387 131.4 173.278 131.259 173.278C131.165 173.278 131.493 172.06 132.009 170.607C132.899 167.937 132.946 165.922 132.055 168.124C131.821 168.78 131.306 169.905 131.025 170.701L130.416 172.106L129.947 170.607C129.291 168.452 129.9 166.157 131.587 164.423C132.992 163.018 133.133 162.971 133.695 163.721C134.023 164.189 134.304 165.641 134.304 166.953ZM97.5281 164.892C97.856 165.267 97.7155 165.313 96.919 165.079C94.2955 164.283 91.672 166.25 91.672 169.061C91.672 169.577 91.4846 169.998 91.2504 169.998C90.5476 169.998 90.3134 171.216 90.735 173.09C91.2035 175.198 91.1098 175.386 89.8449 174.683C88.4863 173.98 88.5332 171.216 89.9386 168.031C91.1098 165.407 91.8126 164.611 93.3117 164.236C94.5766 163.908 96.919 164.283 97.5281 164.892ZM115.237 165.501C117.954 166.485 118.657 167.375 119.547 170.982C120.437 174.683 120.203 175.339 117.86 175.854C116.83 176.089 115.658 175.807 113.41 174.73C111.723 173.933 110.458 173.09 110.599 172.856C110.786 172.622 111.817 172.95 112.988 173.606C115.284 174.87 115.846 174.402 113.831 172.856C113.175 172.294 112.707 171.732 112.848 171.591C113.222 171.263 116.361 173.231 116.689 173.98C116.83 174.355 117.345 174.683 117.86 174.683C119.032 174.683 119.641 172.809 118.891 171.544C118.422 170.748 118.422 170.795 118.376 171.732C118.376 172.341 118.188 172.809 117.954 172.809C117.673 172.809 117.532 171.919 117.579 170.795C117.673 168.827 117.673 168.827 115.518 168.124C114.347 167.703 112.848 167.047 112.145 166.578C109.334 164.751 107.507 166.297 108.819 169.483C109.193 170.467 109.474 171.919 109.381 172.669C109.193 173.84 109.146 173.887 108.819 173.043C107.413 169.249 105.961 168.077 107.132 171.685C107.835 173.746 107.132 175.714 105.445 176.463C104.836 176.791 104.321 177.307 104.321 177.681C104.321 178.665 101.557 181.71 100.198 182.226C99.402 182.554 98.5587 182.413 97.0596 181.757L95.0451 180.867L94.6235 181.898C94.3424 182.413 94.2487 183.725 94.2955 184.755C94.4829 186.91 94.2018 186.489 93.7802 183.912C93.6396 182.928 92.8432 181.429 91.9999 180.492C90.5945 178.853 90.4539 178.806 87.9241 179.04C86.5187 179.181 84.879 179.462 84.3168 179.649C82.6771 180.117 82.3492 178.618 83.8015 177.213C85.0195 175.995 87.643 175.339 89.4701 175.807C90.126 175.948 91.7657 176.932 93.1243 178.009C95.5604 179.836 95.7478 179.883 98.3713 179.696C99.8705 179.555 101.37 179.227 101.744 178.899C102.119 178.618 103.197 176.932 104.134 175.245C105.727 172.294 105.82 171.966 105.539 169.202C105.258 166.531 105.305 166.25 106.101 166.25C106.57 166.25 107.132 166.063 107.413 165.829C108.491 164.751 112.707 164.611 115.237 165.501ZM99.0741 166.391C101.885 167.234 102.681 168.218 102.635 170.748C102.588 171.919 102.307 173.09 101.979 173.418C101.51 173.887 101.463 173.699 101.698 172.622C102.635 168.733 97.6218 165.454 94.9046 168.171C94.1081 168.968 93.9676 169.53 94.2018 170.841C94.4361 172.341 94.3892 172.434 93.7333 171.825C93.3586 171.404 92.9369 170.373 92.7964 169.436C92.5621 168.124 92.7027 167.562 93.4991 166.766C94.6235 165.641 96.1695 165.548 99.0741 166.391ZM112.098 167.89C112.66 168.78 113.129 168.968 114.159 168.78C115.143 168.546 115.752 168.78 116.549 169.577C117.72 170.748 117.158 171.31 115.612 170.514C114.347 169.811 112.754 169.858 112.707 170.56C112.707 170.888 112.473 170.654 112.145 169.998L111.629 168.827L111.442 170.092C111.208 171.872 110.599 171.732 109.943 169.764C109.006 166.859 110.552 165.501 112.098 167.89ZM70.028 169.249L72.511 170.092L70.8244 171.919C69.9343 172.903 69.1847 173.98 69.1847 174.215C69.1847 174.543 68.9037 174.543 68.2478 174.215C67.7324 173.933 67.2171 173.043 67.0766 171.966C66.936 171.029 66.7018 169.717 66.5612 169.108C66.3738 168.359 66.5144 168.077 66.936 168.218C67.264 168.359 68.6694 168.827 70.028 169.249ZM84.551 168.546C85.2538 168.968 85.1601 171.497 84.4105 171.732C84.1294 171.825 83.7078 171.404 83.4735 170.841C82.5366 168.686 76.9147 170.186 75.5561 172.95C74.9471 174.261 74.9471 174.589 75.5093 175.479C76.1183 176.37 76.1183 176.604 75.4624 177.26C74.3849 178.337 73.6353 177.916 73.4948 176.042C73.4011 174.308 74.994 171.029 76.212 170.467C76.5868 170.279 77.758 169.717 78.7887 169.155C80.7095 168.124 83.4735 167.843 84.551 168.546ZM98.465 168.593C98.6524 168.921 98.3713 169.014 97.6218 168.827C96.1226 168.452 94.9982 170.092 95.9352 171.216C96.6848 172.106 97.1064 172.06 98.2776 170.888C99.4957 169.67 100.761 169.905 100.948 171.451C101.276 174.261 97.0596 174.543 95.701 171.778C94.764 169.951 94.764 169.764 95.701 168.874C96.5442 168.031 98.0434 167.89 98.465 168.593ZM122.592 172.153C122.592 172.95 122.451 173.746 122.264 173.887C121.702 174.496 120.25 171.404 120.25 169.623L120.296 167.89L121.421 169.295C122.124 170.092 122.592 171.31 122.592 172.153ZM125.965 171.263C127.324 172.481 126.996 173.652 124.981 174.636L123.201 175.573L123.248 172.997C123.248 170.795 123.388 170.467 124.185 170.467C124.7 170.467 125.497 170.795 125.965 171.263ZM73.1669 172.809C72.183 174.73 72.3704 178.384 73.4948 179.087C74.1038 179.462 74.5723 179.462 75.275 178.993C77.0553 177.916 80.9906 178.525 80.241 179.79C79.6788 180.68 76.212 182.226 75.1345 182.085C74.4786 181.991 74.057 181.57 73.9633 180.867C73.8696 180.117 73.4948 179.836 72.6984 179.836C70.637 179.836 70.1686 178.806 70.8713 175.807C71.1992 174.355 71.9488 172.669 72.511 172.06C73.8696 170.607 74.1507 170.935 73.1669 172.809ZM82.396 171.497C82.6303 172.153 80.8032 174.168 78.7887 175.433C77.5238 176.229 77.5706 176.089 79.3977 174.027C80.4752 172.762 81.3653 171.544 81.3653 171.357C81.3653 170.748 82.2086 170.841 82.396 171.497ZM79.9599 171.825C79.9599 172.528 76.6805 175.198 76.1652 174.917C75.7435 174.636 76.2589 173.278 77.2895 171.966C77.8049 171.31 79.9599 171.169 79.9599 171.825ZM130.322 173.746C130.463 174.027 130.088 174.215 129.432 174.215C128.542 174.215 128.214 173.98 128.214 173.278C128.214 172.481 128.354 172.387 129.104 172.809C129.619 173.043 130.181 173.512 130.322 173.746ZM112.988 175.62C115.612 177.166 118.048 177.4 119.734 176.276L120.812 175.526L119.828 177.353C119.219 178.571 118.329 179.462 117.392 179.836C116.033 180.399 115.565 180.352 112.894 179.415C111.255 178.806 109.615 178.478 109.24 178.618C108.35 178.946 107.132 178.478 107.132 177.869C107.132 176.838 109.1 174.215 109.849 174.215C110.271 174.215 111.723 174.87 112.988 175.62ZM121.936 177.26C120.952 178.759 120.015 178.853 120.765 177.353C121.046 176.791 121.561 176.042 121.796 175.667C122.686 174.589 122.779 175.995 121.936 177.26ZM131.212 176.604C132.055 177.26 132.43 178.009 132.43 178.946V180.352L131.212 179.415C129.432 178.009 126.574 178.103 124.372 179.602C123.014 180.492 122.451 181.336 121.889 183.209C121.514 184.521 121.187 186.161 121.14 186.817L121.093 188.035L120.718 186.864C120.062 184.849 120.203 183.397 121.28 181.71C121.842 180.82 122.358 179.743 122.405 179.368C122.498 178.993 123.295 177.962 124.185 177.119C126.246 175.245 129.198 175.011 131.212 176.604ZM70.028 179.93C70.4028 180.399 71.1992 180.773 71.7146 180.773C72.511 180.773 72.5578 180.867 71.9957 181.242C70.965 181.898 68.9037 181.804 68.2946 181.054C67.9198 180.586 67.9198 180.024 68.3415 178.853C68.81 177.588 68.9505 177.447 69.091 178.197C69.1847 178.712 69.6064 179.508 70.028 179.93ZM111.723 180.164C112.285 180.305 112.754 180.68 112.754 181.054C112.754 182.179 109.334 182.6 105.82 181.898C103.853 181.476 103.853 181.476 104.602 180.399C105.305 179.368 105.586 179.321 108.022 179.602C109.474 179.743 111.114 180.024 111.723 180.164ZM131.118 180.914C134.351 183.397 135.382 185.224 135.101 188.129C134.96 189.487 135.054 190.705 135.288 190.846C135.897 191.267 135.803 194.078 135.147 194.734C134.726 195.156 134.492 195.062 134.023 194.453C133.461 193.75 133.414 193.75 133.367 194.828C133.367 196.468 132.711 197.311 131.072 197.873C130.322 198.107 129.198 199.091 128.589 199.934C127.23 201.996 124.841 203.448 123.529 203.026C122.124 202.558 119.968 199.138 120.624 198.482C121.046 198.06 121.561 198.107 122.686 198.623C124.794 199.606 126.762 198.951 129.619 196.374C132.149 194.125 133.367 191.314 133.367 187.941C133.367 185.13 132.336 183.397 129.947 181.945C127.464 180.492 126.48 180.492 125.075 181.804C123.623 183.163 123.529 186.864 124.934 188.269C126.152 189.487 126.949 189.019 126.715 187.285C126.48 185.739 126.996 185.505 127.745 186.817C128.354 187.988 127.652 189.909 126.34 190.612C125.778 190.893 125.262 191.08 125.216 190.986C125.169 190.893 124.888 190.33 124.606 189.675C124.138 188.55 124.138 188.55 123.904 190.33C123.67 192.532 124.419 193.422 126.48 193.422C128.589 193.422 129.994 192.298 130.556 190.096C131.212 187.707 130.837 185.833 129.291 184.006C127.652 182.085 128.214 181.804 130.275 183.584C134.07 186.957 132.43 193.891 127.652 194.687C126.152 194.922 125.731 194.734 124.466 193.469C123.67 192.673 123.107 191.83 123.295 191.595C123.435 191.361 123.342 191.033 123.06 190.846C122.451 190.471 122.451 185.271 123.014 183.256C123.248 182.413 124.044 181.195 124.794 180.539C126.668 178.899 128.635 179.04 131.118 180.914ZM147.796 180.445C148.499 181.195 148.406 181.195 146.953 180.773C146.063 180.492 144.517 180.305 143.533 180.305C142.315 180.305 141.847 180.117 142.081 179.79C142.549 179.04 146.86 179.555 147.796 180.445ZM91.063 181.476C92.281 182.882 93.5459 186.817 93.5459 189.253C93.5459 190.471 93.1712 191.455 92.3279 192.485C91.6252 193.282 90.9693 193.797 90.8287 193.657C90.6882 193.516 90.2666 193.704 89.8449 194.078C88.7674 195.015 86.1439 195.765 84.1294 195.765C82.8645 195.765 81.5527 195.25 79.6788 194.078C77.1958 192.485 77.0553 192.298 77.3364 190.939C77.5706 189.534 77.5706 189.487 77.0084 190.518C76.6805 191.08 76.2589 191.408 76.0715 191.267C75.3687 190.565 75.7904 189.112 77.3364 186.817C78.2265 185.552 79.1166 184.1 79.2572 183.584C79.4446 183.069 79.7725 182.647 80.0067 182.647C80.3347 182.647 80.3815 183.865 80.1473 185.927C79.8662 188.738 79.9599 189.393 80.85 190.846C81.7401 192.345 81.7401 192.485 80.9437 192.064C80.1941 191.642 79.2103 190.002 78.4139 187.801C78.2733 187.379 78.1328 187.52 78.1328 188.175C78.0391 191.033 81.6464 195.296 84.1294 195.296C84.9258 195.296 86.3781 194.594 87.7367 193.563C92.9838 189.675 93.4523 188.738 91.6252 185.458C90.1729 182.928 88.0178 181.945 85.3475 182.694C83.2393 183.303 81.8338 184.662 81.8338 186.067C81.8338 187.566 83.8015 189.393 85.0195 189.019C87.1746 188.316 88.5332 185.224 87.2214 183.865C86.7998 183.444 86.6124 183.116 86.8466 183.116C88.1584 183.116 88.8143 185.646 88.0647 187.566C87.6899 188.597 83.7078 191.127 83.0987 190.752C82.8176 190.612 82.7708 190.705 82.9582 190.986C83.0987 191.267 83.0519 191.642 82.7708 191.783C82.4897 191.97 82.3492 191.923 82.396 191.689C82.4429 191.502 82.1149 190.658 81.6933 189.815C80.5689 187.707 80.6158 183.116 81.7401 181.663C83.4735 179.555 89.3296 179.462 91.063 181.476ZM120.25 180.305C120.25 180.68 117.86 184.943 117.111 185.88C116.876 186.208 115.096 184.381 115.096 183.772C115.096 183.069 118.844 179.836 119.687 179.836C119.968 179.836 120.25 180.024 120.25 180.305ZM114.768 181.101C114.44 181.195 113.878 181.195 113.597 181.101C113.269 180.961 113.503 180.867 114.159 180.867C114.815 180.867 115.049 180.961 114.768 181.101ZM149.952 182.507C150.42 183.116 150.701 183.772 150.561 183.912C150.42 184.006 149.061 184.24 147.515 184.381C144.892 184.615 144.658 184.568 143.158 183.163L141.566 181.663L143.533 182.6C144.611 183.163 146.204 183.584 147.047 183.584C148.546 183.537 148.546 183.537 146.485 182.835C143.158 181.663 143.112 181.195 146.25 181.289C148.64 181.382 149.202 181.57 149.952 182.507ZM128.167 183.912C128.963 184.849 129.713 186.208 129.854 186.957C130.181 188.41 129.338 191.548 128.635 191.548C128.354 191.548 128.354 191.174 128.682 190.658C128.917 190.143 129.151 188.878 129.151 187.847C129.151 186.348 128.917 185.786 127.98 185.177C127.324 184.755 126.293 184.521 125.637 184.615C124.279 184.896 124.185 184.662 125.216 183.209C126.199 181.804 126.527 181.898 128.167 183.912ZM78.5544 182.928C78.5544 183.069 78.1797 183.819 77.758 184.568C77.0084 185.786 76.7273 185.927 74.3849 185.927C72.511 185.927 71.2929 186.255 69.7938 187.145L67.7324 188.363L68.4352 186.957C69.7938 184.334 70.356 184.053 74.1507 184.053C76.9147 184.053 77.6175 183.912 77.6175 183.35C77.6175 182.975 77.8517 182.647 78.086 182.647C78.367 182.647 78.5544 182.788 78.5544 182.928ZM96.7785 183.303C97.1064 183.725 97.247 185.224 97.1064 187.613C96.7316 194.172 95.9352 195.624 92.0468 197.451C89.7512 198.482 88.2521 198.81 85.2069 198.951C83.0987 199.044 80.8032 198.997 80.1941 198.857C78.6481 198.482 77.149 195.577 77.9923 194.734C78.4139 194.313 78.7887 194.313 79.2103 194.594C82.0681 196.702 82.4897 196.842 85.1132 196.842C88.58 196.842 93.3117 195.156 94.3892 193.516C94.9982 192.579 95.1856 191.174 95.1856 187.473C95.1856 182.647 95.5136 181.757 96.7785 183.303ZM106.148 183.256C106.57 183.772 106.289 184.006 104.883 184.428C102.166 185.224 100.292 187.52 99.3552 191.08C97.9966 196.186 99.2146 199.232 103.665 202.089C106.664 204.01 107.882 204.619 107.46 203.87C107.273 203.589 107.975 203.495 109.428 203.635C112.145 203.87 113.784 203.12 116.174 200.497C118.61 197.826 118.563 195.859 116.033 192.064C115.003 190.518 113.691 188.972 113.082 188.691C111.255 187.707 113.082 187.707 115.003 188.691C116.923 189.675 118.844 191.689 118.844 192.72C118.844 193.001 119.594 194.125 120.484 195.203L122.124 197.123L120.859 197.264C119.641 197.405 119.547 197.639 119.219 199.981C118.891 202.089 118.563 202.839 117.158 204.104C116.221 204.994 115.237 205.556 114.815 205.416C114.44 205.275 113.831 204.994 113.457 204.853C112.941 204.619 112.754 204.9 112.754 205.79C112.754 207.43 111.208 208.882 109.428 208.882C107.647 208.882 106.382 208.227 104.321 206.259C103.431 205.416 101.838 204.385 100.807 204.057C99.1678 203.495 98.793 203.073 97.9029 200.871C96.6848 197.967 96.4974 193.797 97.5281 192.017C97.9497 191.267 98.0903 190.096 97.9029 188.644C97.6686 186.536 97.7155 186.301 99.4957 184.521C101.135 182.882 101.651 182.647 103.525 182.647C104.696 182.647 105.82 182.928 106.148 183.256ZM138.239 183.116C138.895 183.35 139.457 183.865 139.457 184.24C139.457 184.99 137.724 186.395 136.787 186.395C136.038 186.395 135.991 184.896 136.74 184.146C137.162 183.725 137.021 183.584 136.038 183.584C135.335 183.584 134.773 183.35 134.773 183.116C134.773 182.507 136.693 182.507 138.239 183.116ZM113.503 184.474C115.799 186.114 116.783 187.238 117.204 188.691L117.579 189.862L116.127 188.644C115.284 187.941 113.878 187.145 112.894 186.864C111.911 186.536 110.786 186.02 110.411 185.646C109.99 185.318 109.146 184.849 108.537 184.615L107.366 184.146L108.537 183.678C110.458 182.882 111.583 183.022 113.503 184.474ZM52.0851 185.177C55.1771 185.786 58.6907 186.442 59.8619 186.629C61.7358 186.864 62.0169 187.051 61.8295 187.801C61.689 188.316 61.8295 188.738 62.1106 188.738C62.3917 188.738 62.626 188.597 62.626 188.363C62.626 188.175 63.7035 188.035 64.9684 187.988C67.545 187.941 67.7793 188.316 66.4207 190.143L65.5306 191.267L55.3176 189.956C49.6958 189.253 44.9172 188.55 44.7298 188.456C44.5425 188.316 44.3551 187.145 44.3551 185.833C44.3551 183.631 44.4019 183.491 45.4326 183.772C45.9948 183.912 48.9931 184.568 52.0851 185.177ZM67.8261 185.88C67.0766 187.238 62.7665 188.503 63.1881 187.238C63.4224 186.536 66.3738 184.99 67.4514 184.99C68.1072 184.99 68.2009 185.177 67.8261 185.88ZM85.816 186.395C84.551 187.707 83.1924 188.269 83.2393 187.426C83.2861 187.051 86.0502 185.083 86.7061 185.037C86.9872 184.99 86.5655 185.599 85.816 186.395ZM91.5315 187.754C91.7657 188.691 91.4846 189.159 90.3134 190.19C87.7836 192.251 84.27 193.985 83.1924 193.657C82.3023 193.376 82.3492 193.282 83.8015 192.158C84.6447 191.502 86.4718 190.471 87.8304 189.862C89.6107 189.066 90.2666 188.503 90.2666 187.801C90.2666 187.285 90.0792 186.864 89.8449 186.864C89.6107 186.864 89.517 186.395 89.6575 185.88C89.9386 184.896 89.9855 184.896 90.5945 185.739C90.9693 186.208 91.3909 187.145 91.5315 187.754ZM120.25 188.316C120.999 190.658 121.889 192.251 123.107 193.563C124.841 195.343 124.981 195.39 127.277 195.203C129.338 195.015 129.526 195.062 129.057 195.671C128.729 196.046 127.745 196.655 126.902 197.03C125.59 197.592 125.169 197.545 123.81 196.936C121.702 195.905 120.999 195.062 119.828 192.111C118.985 190.049 118.422 184.99 119.032 184.99C119.125 184.99 119.687 186.489 120.25 188.316ZM108.678 186.114C109.521 186.489 111.302 187.847 112.707 189.112C114.815 191.033 115.237 191.642 115.284 193.001C115.284 193.891 115.096 195.015 114.909 195.531C114.721 196.046 114.956 195.812 115.377 195.062L116.221 193.657L116.642 195.156C117.017 196.374 116.876 196.936 116.08 198.295C114.44 200.918 112.473 202.324 110.458 202.324C108.397 202.324 104.134 201.152 102.588 200.122C98.8867 197.686 99.402 190.049 103.478 186.629C105.071 185.318 106.476 185.177 108.678 186.114ZM125.871 187.332C126.48 188.503 126.48 188.503 125.497 187.613C124.934 187.145 124.606 186.536 124.747 186.301C125.075 185.786 125.075 185.786 125.871 187.332ZM73.8227 187.051C73.729 187.145 73.0263 187.332 72.2299 187.52C71.1992 187.754 71.0118 187.707 71.5272 187.332C72.183 186.91 74.2912 186.629 73.8227 187.051ZM88.9079 188.41C88.4395 188.831 88.3926 188.784 88.6737 188.129C88.8143 187.66 89.0953 187.426 89.2359 187.566C89.3764 187.707 89.2359 188.082 88.9079 188.41ZM73.8696 189.393C73.8696 190.237 73.4948 190.658 72.6047 190.986C71.2929 191.408 71.2929 191.408 73.1669 191.783C75.2282 192.158 76.6805 193.188 76.6805 194.266C76.6805 194.828 76.212 194.922 74.3849 194.687C70.4497 194.219 66.7486 191.783 67.6856 190.284C68.2946 189.347 70.7776 188.269 72.3704 188.269C73.6353 188.269 73.8696 188.456 73.8696 189.393ZM139.692 190.424C140.582 190.846 141.566 191.595 141.94 192.158C142.596 193.141 142.456 193.141 139.879 191.876C138.333 191.174 137.115 190.377 137.115 190.096C137.115 189.487 137.911 189.581 139.692 190.424ZM54.0058 191.502C58.8781 192.251 63.9377 193.001 65.2026 193.188C68.5757 193.61 69.1379 194.031 68.0135 195.296C67.1703 196.233 66.7955 196.28 64.0314 195.999C59.4871 195.531 55.3176 194.594 49.5552 192.72C44.8704 191.174 42.7622 190.143 44.4956 190.143C44.8704 190.143 49.1336 190.752 54.0058 191.502ZM142.409 193.985C144.236 195.296 144.002 195.624 141.378 195.296C138.661 194.968 137.584 194.219 137.584 192.673C137.584 191.595 137.584 191.595 139.364 192.345C140.301 192.72 141.659 193.469 142.409 193.985ZM72.0894 196.233C71.2461 196.749 69.9812 197.17 69.2784 197.17L68.0135 197.123L69.1379 196.233C69.7938 195.671 70.9181 195.296 71.9488 195.296H73.6353L72.0894 196.233ZM136.6 197.779C137.162 198.388 137.677 199.56 137.818 200.356C137.911 201.152 138.099 202.043 138.286 202.324C138.474 202.605 137.911 202.417 137.021 201.855C136.178 201.34 134.632 200.918 133.601 200.918C131.025 200.918 130.228 200.356 131.259 199.325C132.243 198.342 132.852 198.388 133.976 199.372C134.819 200.169 134.866 200.169 134.773 198.81C134.585 196.28 134.96 196.046 136.6 197.779ZM76.6805 197.592C76.6805 197.826 76.3994 198.107 76.1183 198.248C75.6498 198.388 75.6498 198.576 76.0715 199.138C76.3994 199.513 76.54 199.981 76.3526 200.122C75.9778 200.543 73.8696 199.981 72.7452 199.232C71.8551 198.623 71.902 198.576 73.448 197.92C75.275 197.123 76.6805 196.983 76.6805 197.592ZM93.0775 198.997C93.0775 199.981 90.4071 202.792 89.4701 202.792C88.9548 202.792 87.9241 201.434 87.9241 200.731C87.9241 200.637 88.4863 200.403 89.2359 200.215C89.9386 200.075 91.0161 199.56 91.672 199.044C93.1243 197.92 93.0775 197.92 93.0775 198.997ZM93.5928 203.87C92.4216 205.697 92.3279 205.275 93.3586 202.886C93.7802 201.949 94.2018 201.434 94.3424 201.761C94.4829 202.089 94.1081 203.026 93.5928 203.87ZM118.704 204.807C118.329 205.369 117.673 205.931 117.204 206.025C116.455 206.165 116.502 205.978 117.486 204.76C118.75 203.214 119.734 203.261 118.704 204.807ZM127.652 205.837C128.87 207.196 130.369 210.616 129.947 211.037C129.854 211.131 128.495 210.007 126.902 208.601C124.044 206.025 123.435 204.994 124.606 204.526C125.778 204.01 126.293 204.244 127.652 205.837ZM97.2938 205.79C97.2938 205.884 96.919 206.259 96.4974 206.587C95.7478 207.196 95.701 207.149 96.31 206.399C96.919 205.65 97.2938 205.416 97.2938 205.79ZM127.698 210.569C131.634 213.099 131.587 213.708 127.605 212.349C124.934 211.459 123.06 209.351 123.06 207.336V205.837L123.951 207.29C124.419 208.039 126.106 209.538 127.698 210.569ZM103.29 207.711C104.134 209.491 103.993 211.131 102.962 211.646C101.838 212.256 101.51 211.553 101.51 208.601C101.51 206.259 102.447 205.79 103.29 207.711ZM97.3875 208.508C97.0596 208.836 96.8253 208.882 96.8253 208.601C96.8253 207.945 97.3875 207.383 97.7155 207.711C97.8092 207.852 97.6686 208.227 97.3875 208.508ZM111.395 212.958C112.707 216.05 112.192 216.612 110.739 213.708C109.334 210.944 109.287 210.756 109.943 210.756C110.224 210.756 110.88 211.74 111.395 212.958Z" fill="#15304A"/>
<path d="M77.149 5.56008C77.149 5.79432 77.3832 6.02856 77.6175 6.02856C77.8986 6.02856 78.086 5.79432 78.086 5.56008C78.086 5.27899 77.8986 5.0916 77.6175 5.0916C77.3832 5.0916 77.149 5.27899 77.149 5.56008Z" fill="#15304A"/>
<path d="M70.8244 33.5756C69.3721 34.5126 67.4045 36.4802 67.9198 36.4802C68.1072 36.4802 68.9037 36.0586 69.7469 35.5432C71.7614 34.3252 72.9795 34.372 77.149 35.7775C81.2716 37.1829 81.8338 37.2298 81.8338 36.0586C81.8338 35.3558 81.1311 34.8874 79.1635 34.1378C75.1813 32.6386 72.5578 32.4981 70.8244 33.5756Z" fill="#15304A"/>
<path d="M73.6353 38.4009C72.6047 38.6352 71.574 39.0568 71.3398 39.291C71.0587 39.5721 70.4965 39.7595 69.9812 39.7595C69.5127 39.7595 69.2784 39.9469 69.419 40.228C70.028 41.165 73.2606 42.2893 75.5093 42.3362C77.4769 42.3362 77.8517 42.1956 77.7112 41.4929C77.6175 40.7902 77.8049 40.7433 78.8355 40.9776L80.1004 41.3055L79.2572 39.8532C78.086 37.8856 77.0553 37.6045 73.6353 38.4009ZM75.275 40.8839C75.275 41.3992 74.3849 41.5866 74.1038 41.165C73.9633 40.9307 74.1507 40.6965 74.5255 40.6965C74.9471 40.6965 75.275 40.7902 75.275 40.8839Z" fill="#15304A"/>
<path d="M87.1277 40.0405C86.6593 41.3054 87.362 46.0371 88.4395 48.5669L89.4702 51.0499L88.1584 52.4085C87.4088 53.2049 87.034 53.814 87.2683 53.814C87.5494 53.814 87.9242 53.6734 88.1116 53.4392C88.299 53.2518 88.6737 53.1112 88.9548 53.1112C89.2359 53.1112 89.6576 52.7833 89.9387 52.3617C90.3134 51.7995 90.0792 50.7688 89.0954 48.4264C88.0647 46.084 87.7368 44.4911 87.6899 42.2892C87.6899 39.1504 87.5962 38.8225 87.1277 40.0405Z" fill="#15304A"/>
<path d="M80.2878 50.394C80.1004 50.5346 79.9599 51.2841 79.9599 51.9869C79.9599 53.5797 80.9906 54.0013 83.0987 53.2986C84.3168 52.9238 84.879 52.9238 85.2538 53.2986C85.9565 54.0013 86.5187 53.9545 86.5187 53.1581C86.5187 51.6121 81.8807 51.4247 81.8338 52.9707C81.787 53.3455 81.5527 53.2518 81.178 52.7364C80.8032 52.268 80.6158 51.4715 80.7563 51.003C80.9906 50.0661 80.85 49.8318 80.2878 50.394Z" fill="#15304A"/>
<path d="M80.85 57.6557C79.7257 58.171 78.2265 58.5926 77.5238 58.5926C76.7742 58.5926 76.212 58.78 76.212 59.0143C76.212 59.2485 76.4931 59.4359 76.8211 59.4359C77.1959 59.4359 77.9454 59.9981 78.6013 60.654C80.85 63.1369 85.0664 64.3082 87.5962 63.1369C88.1584 62.8559 89.2359 61.5909 89.8918 60.326C91.0162 58.3116 91.063 58.0305 90.3134 58.0305C89.8918 58.0305 89.2828 57.7962 89.0017 57.5151C88.0178 56.5313 83.0988 56.625 80.85 57.6557ZM89.0954 59.4359C88.6737 60.1386 85.2069 60.4666 82.4429 60.0918C80.1005 59.7639 79.9131 59.6702 81.1311 59.4359C83.1925 59.0143 89.3765 59.0143 89.0954 59.4359Z" fill="#15304A"/>
<path d="M49.1805 106.893C50.0706 109.423 52.9283 115.654 53.1157 115.467C53.3968 115.185 50.1174 107.174 49.4615 106.565C49.0399 106.191 48.9931 106.284 49.1805 106.893Z" fill="#15304A"/>
<path d="M105.399 106.612C103.993 111.672 103.712 113.312 104.227 113.312C104.462 113.312 104.977 111.906 105.399 110.126C106.289 106.472 106.851 103.005 106.617 103.005C106.523 103.005 105.961 104.645 105.399 106.612Z" fill="#15304A"/>
<path d="M99.9173 147.979C95.9821 151.821 95.4199 152.524 96.0289 153.039C96.5911 153.554 97.1533 153.226 99.2146 151.306C101.416 149.338 105.258 143.95 104.743 143.623C104.649 143.576 102.494 145.543 99.9173 147.979Z" fill="#15304A"/>
<path d="M87.8773 150.228C80.0067 155.147 78.2265 156.412 79.0698 156.412C80.1941 156.412 94.0144 147.511 94.0144 146.761C94.0144 146.387 93.827 146.527 87.8773 150.228Z" fill="#15304A"/>
<path d="M110.646 176.089C111.676 177.213 115.049 178.899 116.314 178.899C116.783 178.899 115.94 178.244 114.394 177.447C112.848 176.698 111.395 175.854 111.161 175.573C110.271 174.73 109.802 175.152 110.646 176.089Z" fill="#15304A"/>
<path d="M104.181 187.847C102.026 189.112 101.182 193.797 102.588 196.561C103.946 199.138 106.523 200.215 110.927 200.028C111.629 199.981 112.66 199.606 113.222 199.138C114.159 198.388 114.3 197.873 114.206 195.015C114.112 191.127 113.503 190.049 110.411 188.503C108.022 187.285 105.586 187.004 104.181 187.847ZM108.069 188.269C108.678 188.644 108.631 188.738 107.928 188.738C106.757 188.738 104.93 190.846 104.509 192.626C104.181 194.125 104.181 194.125 103.806 192.954C103.197 190.893 103.337 190.143 104.555 188.972C105.727 187.754 106.898 187.52 108.069 188.269ZM111.114 189.675C111.302 189.956 111.583 190.049 111.77 189.956C112.098 189.721 112.145 189.956 112.332 193.048C112.426 194.031 112.66 194.828 112.848 194.828C113.503 194.828 113.222 197.545 112.473 198.295C111.02 199.794 105.961 198.904 104.321 196.936C103.665 196.14 103.712 196.093 104.555 196.421C107.038 197.451 109.1 197.733 110.083 197.264C111.067 196.796 111.067 196.749 109.802 196.749C108.163 196.702 105.914 195.577 105.539 194.594C105.399 194.172 105.258 193.376 105.258 192.813C105.258 191.876 105.352 191.923 106.101 193.188C107.319 195.109 108.35 195.859 109.756 195.859C112.239 195.859 112.707 192.485 110.411 191.314C108.959 190.565 107.132 190.752 107.132 191.595C107.132 191.83 107.882 192.392 108.772 192.813C110.505 193.61 110.927 194.359 109.709 194.359C108.865 194.359 106.664 192.298 106.664 191.549C106.664 190.143 107.694 189.206 109.24 189.206C110.083 189.206 110.974 189.44 111.114 189.675ZM113.129 191.783C112.988 191.923 112.707 191.689 112.566 191.221C112.285 190.565 112.332 190.518 112.801 190.939C113.129 191.267 113.269 191.642 113.129 191.783ZM113.55 193.985C113.41 194.313 113.316 194.078 113.316 193.422C113.316 192.767 113.41 192.532 113.55 192.813C113.644 193.141 113.644 193.704 113.55 193.985Z" fill="#15304A"/>
<path d="M135.194 197.873C135.991 199.419 137.583 201.199 137.583 200.59C137.583 200.262 136.928 199.325 136.131 198.482C135.382 197.639 134.913 197.358 135.194 197.873Z" fill="#15304A"/>
<path d="M144.189 164.517C143.674 165.735 142.831 166.766 141.987 167.187C141.238 167.562 140.441 167.937 140.207 168.077C139.926 168.171 140.254 167.468 140.863 166.438L141.987 164.611L140.863 165.36C140.207 165.782 139.176 166.859 138.52 167.749C137.865 168.64 136.74 170.186 135.991 171.169C134.866 172.528 134.538 173.512 134.398 175.714L134.164 178.478L135.991 178.15C142.409 177.025 145.079 173.746 145.454 166.578C145.548 164.33 145.501 162.502 145.36 162.502C145.173 162.502 144.658 163.393 144.189 164.517ZM144.377 168.452C143.955 170.701 142.643 173.231 141.238 174.543C140.254 175.433 135.944 176.932 135.522 176.51C135.382 176.416 135.616 175.526 135.944 174.496C136.74 172.247 139.176 169.67 140.91 169.295C141.612 169.155 142.69 168.499 143.299 167.89C144.751 166.438 144.751 166.438 144.377 168.452Z" fill="#15304A"/>
<path d="M138.146 173.606C137.209 174.543 136.834 174.964 137.349 174.589C137.865 174.168 139.036 173.418 139.926 172.856C141.003 172.247 141.285 171.872 140.722 171.872C140.301 171.872 139.129 172.622 138.146 173.606Z" fill="#15304A"/>
<path d="M83.8952 213.052C84.0826 213.333 85.9096 214.738 87.9241 216.191C89.9386 217.596 92.0468 219.47 92.5621 220.36C93.2649 221.578 93.827 222 94.7172 222C95.7478 222 95.8415 221.859 95.4667 221.11C94.5766 219.517 90.4539 216.144 86.9872 214.317C85.1132 213.286 83.7078 212.724 83.8952 213.052Z" fill="#15304A"/>
<path d="M80.4284 216.472C81.6933 217.69 88.2052 222 88.8143 222C89.7981 222 88.908 221.11 86.2844 219.423C83.0987 217.409 79.4914 215.582 80.4284 216.472Z" fill="#15304A"/>
<path d="M114.159 217.83C114.159 218.721 116.267 222 116.876 222C117.72 222 117.579 221.719 116.033 219.376C114.534 217.268 114.159 216.94 114.159 217.83Z" fill="#15304A"/>
<path d="M75.6967 220.313C76.54 221.344 78.7887 222.094 80.4752 221.906C81.9275 221.766 81.8338 221.672 78.8355 220.688C75.0876 219.47 74.994 219.47 75.6967 220.313Z" fill="#15304A"/>
</svg>
